<svg xmlns="http://www.w3.org/2000/svg" xmlns:xlink="http://www.w3.org/1999/xlink" xmlns:lucid="lucid" width="1850" height="2269.33"><g transform="translate(400 -200)" lucid:page-tab-id="0_0"><path d="M-500 0h2000v2500H-500z" fill="#fff"/><path d="M-158.14 441.33a8.25 8.25 0 0 1 3-9.23l70.28-51.02a8.27 8.27 0 0 1 9.72 0l70.28 51.02a8.25 8.25 0 0 1 3 9.23l-26.84 82.52a8.26 8.26 0 0 1-7.86 5.7h-86.88a8.26 8.26 0 0 1-7.86-5.7z" stroke="#000" stroke-width="2" fill="#d7faf5"/><use xlink:href="#a" transform="matrix(1,0,0,1,-155,382.5559895833333) translate(22.167543402777774 79.21527777777777)"/><path d="M360 383.56a6 6 0 0 1 6-6h308a6 6 0 0 1 6 6v140a6 6 0 0 1-6 6H366a6 6 0 0 1-6-6z" stroke="#000" stroke-width="2" fill="#c3f7c8"/><use xlink:href="#b" transform="matrix(1,0,0,1,372,389.5559895833333) translate(96.73589409722223 57.52777777777778)"/><use xlink:href="#c" transform="matrix(1,0,0,1,372,389.5559895833333) translate(50.91341145833334 89.79340277777777)"/><use xlink:href="#d" transform="matrix(1,0,0,1,372,389.5559895833333) translate(174.96940104166663 89.79340277777777)"/><path d="M360 986a6 6 0 0 1 6-6h308a6 6 0 0 1 6 6v140a6 6 0 0 1-6 6H366a6 6 0 0 1-6-6z" stroke="#000" stroke-width="2" fill="#fff"/><use xlink:href="#e" transform="matrix(1,0,0,1,372,992) translate(81.57747395833334 57.52777777777778)"/><use xlink:href="#f" transform="matrix(1,0,0,1,372,992) translate(178.92990451388889 57.52777777777778)"/><use xlink:href="#g" transform="matrix(1,0,0,1,372,992) translate(44.46809895833334 89.79340277777777)"/><use xlink:href="#h" transform="matrix(1,0,0,1,372,992) translate(138.966796875 89.79340277777777)"/><use xlink:href="#i" transform="matrix(1,0,0,1,372,992) translate(159.91948784722223 89.79340277777777)"/><path d="M960 294a6 6 0 0 1 6-6h308a6 6 0 0 1 6 6v140a6 6 0 0 1-6 6H966a6 6 0 0 1-6-6z" stroke="#000" stroke-width="2" fill="#dfe3e8"/><use xlink:href="#j" transform="matrix(1,0,0,1,972,300) translate(23.015624999999986 40.66666666666667)"/><use xlink:href="#k" transform="matrix(1,0,0,1,972,300) translate(117.94270833333333 40.66666666666667)"/><use xlink:href="#l" transform="matrix(1,0,0,1,972,300) translate(43.71354166666666 71.64166666666667)"/><use xlink:href="#m" transform="matrix(1,0,0,1,972,300) translate(215.68229166666669 71.64166666666667)"/><use xlink:href="#n" transform="matrix(1,0,0,1,972,300) translate(88.875 102.61666666666666)"/><path d="M960 640a6 6 0 0 1 6-6h308a6 6 0 0 1 6 6v140a6 6 0 0 1-6 6H966a6 6 0 0 1-6-6z" stroke="#000" stroke-width="2" fill="#ced4db"/><use xlink:href="#j" transform="matrix(1,0,0,1,972,646) translate(1.1614583333333144 40.66666666666667)"/><use xlink:href="#o" transform="matrix(1,0,0,1,972,646) translate(96.08854166666666 40.66666666666667)"/><use xlink:href="#p" transform="matrix(1,0,0,1,972,646) translate(193.828125 40.66666666666667)"/><use xlink:href="#q" transform="matrix(1,0,0,1,972,646) translate(213.21354166666669 40.66666666666667)"/><use xlink:href="#r" transform="matrix(1,0,0,1,972,646) translate(17.338541666666657 71.64166666666667)"/><use xlink:href="#s" transform="matrix(1,0,0,1,972,646) translate(123.859375 71.64166666666667)"/><use xlink:href="#t" transform="matrix(1,0,0,1,972,646) translate(166.46354166666666 71.64166666666667)"/><use xlink:href="#u" transform="matrix(1,0,0,1,972,646) translate(259.38020833333337 71.64166666666667)"/><use xlink:href="#v" transform="matrix(1,0,0,1,972,646) translate(106.765625 102.61666666666666)"/><path d="M960 986a6 6 0 0 1 6-6h308a6 6 0 0 1 6 6v140a6 6 0 0 1-6 6H966a6 6 0 0 1-6-6z" stroke="#000" stroke-width="2" fill="#ced4db"/><use xlink:href="#w" transform="matrix(1,0,0,1,972,992) translate(122.06770833333333 40.66666666666667)"/><use xlink:href="#x" transform="matrix(1,0,0,1,972,992) translate(27.42708333333333 71.64166666666667)"/><use xlink:href="#y" transform="matrix(1,0,0,1,972,992) translate(33.42708333333333 71.64166666666667)"/><use xlink:href="#s" transform="matrix(1,0,0,1,972,992) translate(101.10416666666667 71.64166666666667)"/><use xlink:href="#z" transform="matrix(1,0,0,1,972,992) translate(143.70833333333334 71.64166666666667)"/><use xlink:href="#A" transform="matrix(1,0,0,1,972,992) translate(119.33333333333333 102.61666666666666)"/><path d="M-4.28 453.56h346.9" stroke="#3a414a" fill="none"/><path d="M-4.27 454.03h-.67l.3-.95h.37z" stroke="#3a414a" stroke-width=".05" fill="#3a414a"/><path d="M357.38 453.56l-14.26 4.63v-9.28z" stroke="#3a414a" fill="#3a414a"/><path d="M358.5 453.56H11.6" stroke="#3a414a" fill="none"/><path d="M359 454.03h-.5v-.95h.5z" stroke="#3a414a" stroke-width=".05" fill="#3a414a"/><path d="M-3.17 453.56l14.27-4.64v9.27z" stroke="#3a414a" fill="#3a414a"/><path d="M520 531.06v431.56" stroke="#3a414a" fill="none"/><path d="M520.48 531.07h-.96v-.5h.96z" stroke="#3a414a" stroke-width=".05" fill="#3a414a"/><path d="M520 977.38l-4.63-14.26h9.26z" stroke="#3a414a" fill="#3a414a"/><path d="M520 978.5V546.94" stroke="#3a414a" fill="none"/><path d="M520.48 979h-.96v-.5h.96z" stroke="#3a414a" stroke-width=".05" fill="#3a414a"/><path d="M520 532.17l4.63 14.27h-9.26z" stroke="#3a414a" fill="#3a414a"/><path d="M801 371v688M681 1061h278M803 371h158M801 721h158M683 461h118" stroke="#000" stroke-width="2" stroke-linecap="round" fill="none"/><path d="M360 769.1a6 6 0 0 1 6-6h130.85a6 6 0 0 1 6 6V794a6 6 0 0 1-6 6H366a6 6 0 0 1-6-6z" fill="#fff" fill-opacity="0"/><use xlink:href="#e" transform="matrix(1,0,0,1,365,768.1119791666666) translate(0.07747395833334281 23.21527777777778)"/><use xlink:href="#B" transform="matrix(1,0,0,1,365,768.1119791666666) translate(97.42990451388889 23.21527777777778)"/><path d="M698.17 426a6 6 0 0 1 6-6h71.66a6 6 0 0 1 6 6v24.9a6 6 0 0 1-6 6h-71.66a6 6 0 0 1-6-6z" fill="#fff" fill-opacity="0"/><use xlink:href="#C" transform="matrix(1,0,0,1,703.1727430555554,425) translate(0.17274305555555713 23.21527777777778)"/><path d="M120 409.1a6 6 0 0 1 6-6h84.64a6 6 0 0 1 6 6V434a6 6 0 0 1-6 6H126a6 6 0 0 1-6-6z" fill="#fff" fill-opacity="0"/><use xlink:href="#D" transform="matrix(1,0,0,1,125,408.1119791666667) translate(0.17860243055555713 23.21527777777778)"/><path d="M-389 241h1828" stroke="#000" stroke-width="2" stroke-linecap="round" fill="none"/><path d="M-400 206a6 6 0 0 1 6-6h148a6 6 0 0 1 6 6v28a6 6 0 0 1-6 6h-148a6 6 0 0 1-6-6z" fill="#fff" fill-opacity="0"/><use xlink:href="#E" transform="matrix(1,0,0,1,-395,205) translate(29.375 22.541666666666668)"/><path d="M-399 1281h1848" stroke="#000" stroke-width="2" stroke-linecap="round" fill="none"/><path d="M-380 1246a6 6 0 0 1 6-6h89.25a6 6 0 0 1 6 6v23.8a6 6 0 0 1-6 6H-374a6 6 0 0 1-6-6z" fill="#fff" fill-opacity="0"/><use xlink:href="#F" transform="matrix(1,0,0,1,-375,1245) translate(-15.848958333333336 20.760416666666668)"/><path d="M-360 1626a6 6 0 0 1 6-6h308a6 6 0 0 1 6 6v140a6 6 0 0 1-6 6h-308a6 6 0 0 1-6-6z" stroke="#000" stroke-width="2" fill="#ffdda6"/><use xlink:href="#G" transform="matrix(1,0,0,1,-348,1632) translate(50.390625 56.66666666666667)"/><use xlink:href="#H" transform="matrix(1,0,0,1,-348,1632) translate(174.93229166666669 56.66666666666667)"/><use xlink:href="#I" transform="matrix(1,0,0,1,-348,1632) translate(38.411458333333314 87.64166666666667)"/><use xlink:href="#J" transform="matrix(1,0,0,1,-348,1632) translate(109.40104166666666 87.64166666666667)"/><use xlink:href="#K" transform="matrix(1,0,0,1,-348,1632) translate(179.609375 87.64166666666667)"/><use xlink:href="#L" transform="matrix(1,0,0,1,-348,1632) translate(199.72395833333334 87.64166666666667)"/><path d="M320 1626a6 6 0 0 1 6-6h308a6 6 0 0 1 6 6v140a6 6 0 0 1-6 6H326a6 6 0 0 1-6-6z" stroke="#000" stroke-width="2" fill="#fff"/><use xlink:href="#M" transform="matrix(1,0,0,1,332,1632) translate(82.41145833333333 56.66666666666667)"/><use xlink:href="#N" transform="matrix(1,0,0,1,332,1632) translate(177.84895833333334 56.66666666666667)"/><use xlink:href="#O" transform="matrix(1,0,0,1,332,1632) translate(45.609375 87.64166666666667)"/><use xlink:href="#P" transform="matrix(1,0,0,1,332,1632) translate(51.609375 87.64166666666667)"/><use xlink:href="#K" transform="matrix(1,0,0,1,332,1632) translate(142.328125 87.64166666666667)"/><use xlink:href="#Q" transform="matrix(1,0,0,1,332,1632) translate(162.44270833333334 87.64166666666667)"/><path d="M300 2295.35a6 6 0 0 1 6-6h308a6 6 0 0 1 6 6v166.98a6 6 0 0 1-6 6H306a6 6 0 0 1-6-6z" stroke="#000" stroke-width="2" fill="#fcfcca"/><use xlink:href="#R" transform="matrix(1,0,0,1,312,2301.3506915707176) translate(7.612194999348958 24.179998708333333)"/><use xlink:href="#S" transform="matrix(1,0,0,1,312,2301.3506915707176) translate(169.04781137565104 24.179998708333333)"/><use xlink:href="#T" transform="matrix(1,0,0,1,312,2301.3506915707176) translate(205.5615594251302 24.179998708333333)"/><use xlink:href="#U" transform="matrix(1,0,0,1,312,2301.3506915707176) translate(52.817708333333314 56.90741473072917)"/><use xlink:href="#V" transform="matrix(1,0,0,1,312,2301.3506915707176) translate(132.859375 56.90741473072917)"/><use xlink:href="#W" transform="matrix(1,0,0,1,312,2301.3506915707176) translate(175.61979166666666 56.90741473072917)"/><use xlink:href="#X" transform="matrix(1,0,0,1,312,2301.3506915707176) translate(36.359375 87.88241473072917)"/><use xlink:href="#Y" transform="matrix(1,0,0,1,312,2301.3506915707176) translate(184.84895833333334 87.88241473072917)"/><use xlink:href="#Z" transform="matrix(1,0,0,1,312,2301.3506915707176) translate(4.192708333333286 118.85741473072916)"/><use xlink:href="#V" transform="matrix(1,0,0,1,312,2301.3506915707176) translate(124.20312499999999 118.85741473072916)"/><use xlink:href="#aa" transform="matrix(1,0,0,1,312,2301.3506915707176) translate(166.96354166666666 118.85741473072916)"/><use xlink:href="#ab" transform="matrix(1,0,0,1,312,2301.3506915707176) translate(66.01041666666666 149.83241473072914)"/><use xlink:href="#ac" transform="matrix(1,0,0,1,312,2301.3506915707176) translate(110.01041666666666 149.83241473072914)"/><path d="M960 1446a6 6 0 0 1 6-6h308a6 6 0 0 1 6 6v140a6 6 0 0 1-6 6H966a6 6 0 0 1-6-6z" stroke="#000" stroke-width="2" fill="#dfe3e8"/><g><use xlink:href="#j" transform="matrix(1,0,0,1,972,1452) translate(23.015624999999986 40.66666666666667)"/><use xlink:href="#k" transform="matrix(1,0,0,1,972,1452) translate(117.94270833333333 40.66666666666667)"/><use xlink:href="#l" transform="matrix(1,0,0,1,972,1452) translate(43.71354166666666 71.64166666666667)"/><use xlink:href="#m" transform="matrix(1,0,0,1,972,1452) translate(215.68229166666669 71.64166666666667)"/><use xlink:href="#n" transform="matrix(1,0,0,1,972,1452) translate(88.875 102.61666666666666)"/></g><path d="M960 1756a6 6 0 0 1 6-6h308a6 6 0 0 1 6 6v140a6 6 0 0 1-6 6H966a6 6 0 0 1-6-6z" stroke="#000" stroke-width="2" fill="#dfe3e8"/><g><use xlink:href="#j" transform="matrix(1,0,0,1,972,1762) translate(1.1614583333333144 40.66666666666667)"/><use xlink:href="#o" transform="matrix(1,0,0,1,972,1762) translate(96.08854166666666 40.66666666666667)"/><use xlink:href="#p" transform="matrix(1,0,0,1,972,1762) translate(193.828125 40.66666666666667)"/><use xlink:href="#q" transform="matrix(1,0,0,1,972,1762) translate(213.21354166666669 40.66666666666667)"/><use xlink:href="#r" transform="matrix(1,0,0,1,972,1762) translate(17.338541666666657 71.64166666666667)"/><use xlink:href="#s" transform="matrix(1,0,0,1,972,1762) translate(123.859375 71.64166666666667)"/><use xlink:href="#t" transform="matrix(1,0,0,1,972,1762) translate(166.46354166666666 71.64166666666667)"/><use xlink:href="#u" transform="matrix(1,0,0,1,972,1762) translate(259.38020833333337 71.64166666666667)"/><use xlink:href="#v" transform="matrix(1,0,0,1,972,1762) translate(106.765625 102.61666666666666)"/></g><path d="M962 2306a6 6 0 0 1 6-6h308a6 6 0 0 1 6 6v140a6 6 0 0 1-6 6H968a6 6 0 0 1-6-6z" stroke="#000" stroke-width="2" fill="#dfe3e8"/><g><use xlink:href="#w" transform="matrix(1,0,0,1,973.9999999999999,2312) translate(122.06770833333333 40.66666666666667)"/><use xlink:href="#x" transform="matrix(1,0,0,1,973.9999999999999,2312) translate(27.42708333333333 71.64166666666667)"/><use xlink:href="#y" transform="matrix(1,0,0,1,973.9999999999999,2312) translate(33.42708333333333 71.64166666666667)"/><use xlink:href="#s" transform="matrix(1,0,0,1,973.9999999999999,2312) translate(101.10416666666667 71.64166666666667)"/><use xlink:href="#z" transform="matrix(1,0,0,1,973.9999999999999,2312) translate(143.70833333333334 71.64166666666667)"/><use xlink:href="#A" transform="matrix(1,0,0,1,973.9999999999999,2312) translate(119.33333333333333 102.61666666666666)"/></g><path d="M960 2026a6 6 0 0 1 6-6h276a6 6 0 0 1 6 6v164c-48.1-28.4-78.05-28.4-96.2-28.4-28.8 0-67.1 28.4-95.9 28.4-17.85 0-48.1 0-95.9-28.4z" stroke="#000" stroke-width="2" fill="#f7f4e4"/><path d="M976 2041a6 6 0 0 1 6-6h276a6 6 0 0 1 6 6v164c-48.1-28.4-78.05-28.4-96.2-28.4-28.8 0-67.1 28.4-95.9 28.4-17.85 0-48.1 0-95.9-28.4z" stroke="#000" stroke-width="2" fill="#f7f4e4"/><path d="M992 2056a6 6 0 0 1 6-6h276a6 6 0 0 1 6 6v164c-48.1-28.4-78.05-28.4-96.2-28.4-28.8 0-67.1 28.4-95.9 28.4-17.85 0-48.1 0-95.9-28.4z" stroke="#000" stroke-width="2" fill="#f7f4e4"/><g><use xlink:href="#ad" transform="matrix(1,0,0,1,997,2055) translate(26.624999999999986 37.16666666666667)"/><use xlink:href="#ae" transform="matrix(1,0,0,1,997,2055) translate(67.41666666666666 37.16666666666667)"/><use xlink:href="#af" transform="matrix(1,0,0,1,997,2055) translate(131.07291666666669 37.16666666666667)"/><use xlink:href="#ag" transform="matrix(1,0,0,1,997,2055) translate(7.385416666666671 68.14166666666667)"/><use xlink:href="#ah" transform="matrix(1,0,0,1,997,2055) translate(107.84375000000001 68.14166666666667)"/><use xlink:href="#ai" transform="matrix(1,0,0,1,997,2055) translate(194 68.14166666666667)"/><use xlink:href="#aj" transform="matrix(1,0,0,1,997,2055) translate(225.35416666666669 68.14166666666667)"/><use xlink:href="#ak" transform="matrix(1,0,0,1,997,2055) translate(38.08854166666666 99.11666666666666)"/><use xlink:href="#ai" transform="matrix(1,0,0,1,997,2055) translate(83.86979166666666 99.11666666666666)"/><use xlink:href="#al" transform="matrix(1,0,0,1,997,2055) translate(115.22395833333334 99.11666666666666)"/></g><path d="M109.9 1696.47H-38.5v-.94h148.4zm192.72 0H170.1v-.94H302.6z" stroke="#3a414a" stroke-width=".05" fill="#3a414a"/><path d="M-38.5 1696.47h-.5v-.94h.5z" fill="#3a414a"/><path stroke="#3a414a" stroke-width=".05" fill="#3a414a"/><path d="M317.38 1696l-14.26 4.63v-9.27z" fill="#3a414a"/><path d="M318.92 1696l-16.28 5.3v-10.6zm-15.33 3.98l12.25-3.98-12.26-3.98z" stroke="#3a414a" stroke-width=".05" fill="#3a414a"/><g><use xlink:href="#am" transform="matrix(1,0,0,1,109.91319444444444,1685.2447916666667) translate(0 17.22222222222222)"/></g><path d="M460.48 2271.97h-.96v-230.54h.96zm20-252.05h-.96V1773.5h.96z" stroke="#3a414a" stroke-width=".05" fill="#3a414a"/><path d="M480.48 1773.5h-.96v-.5h.96z" fill="#3a414a"/><path stroke="#3a414a" stroke-width=".05" fill="#3a414a"/><path d="M460 2286.73l-4.63-14.26h9.26z" fill="#3a414a"/><path d="M460 2288.27l-5.3-16.28h10.6zm-3.98-15.33l3.98 12.26 3.98-12.26z" stroke="#3a414a" stroke-width=".05" fill="#3a414a"/><g><use xlink:href="#an" transform="matrix(1,0,0,1,434.1579861111111,2019.9201374520255) translate(0 17.22222222222222)"/></g><g><path d="M721 1521v838" stroke="#000" stroke-width="2" stroke-linecap="round" fill="none"/></g><path d="M721.42 1520h221.2" stroke="#3a414a" fill="none"/><path d="M721.48 1520.34l-.25-.3-.7.14v-.62h.95z" stroke="#3a414a" stroke-width=".05" fill="#3a414a"/><path d="M957.38 1520l-14.26 4.63v-9.27z" stroke="#3a414a" fill="#3a414a"/><path d="M722.5 1840h220.12" stroke="#3a414a" fill="none"/><path d="M720 1840.47h-1v-.94h1zm2.5 0h-.5v-.94h.5z" stroke="#3a414a" stroke-width=".05" fill="#3a414a"/><path d="M957.38 1840l-14.26 4.63v-9.27z" stroke="#3a414a" fill="#3a414a"/><path d="M722.5 2120h220.12" stroke="#3a414a" fill="none"/><path d="M720 2120.47h-1v-.94h1zm2.5 0h-.5v-.94h.5z" stroke="#3a414a" stroke-width=".05" fill="#3a414a"/><path d="M957.38 2120l-14.26 4.64v-9.28z" stroke="#3a414a" fill="#3a414a"/><path d="M621.5 2360h323.12" stroke="#3a414a" fill="none"/><path d="M621.5 2360.47h-.5v-.94h.5z" stroke="#3a414a" stroke-width=".05" fill="#3a414a"/><path d="M959.38 2360l-14.26 4.64v-9.28z" stroke="#3a414a" fill="#3a414a"/><path d="M641 1701h78" stroke="#000" stroke-width="2" stroke-linecap="round" fill="none"/><path d="M109.9 1696.47H-22.6v-.94H109.9zm208.6 0H170.1v-.94h148.4z" stroke="#3a414a" stroke-width=".05" fill="#3a414a"/><path d="M319 1696.47h-.5v-.94h.5z" fill="#3a414a"/><path stroke="#3a414a" stroke-width=".05" fill="#3a414a"/><path d="M-23.12 1700.63l-14.26-4.63 14.26-4.63z" fill="#3a414a"/><path d="M-22.64 1701.3l-16.28-5.3 16.28-5.3zm-13.2-5.3l12.25 3.98v-7.96z" stroke="#3a414a" stroke-width=".05" fill="#3a414a"/><defs><path d="M763 24c-353 0-583-224-583-531v-983h190v968c0 214 149 370 393 370 243 0 391-156 391-370v-968h190v983c0 307-230 531-581 531" id="ao"/><path d="M598-1118v154H368v674c0 100 37 144 132 144 23 0 62-6 92-12L629-6c-37 13-88 20-134 20-193 0-307-107-307-290v-688H20v-154h168v-266h180v266h230" id="ap"/><path d="M158 0v-1118h180V0H158zm91-1301c-68 0-125-53-125-119s57-119 125-119c69 0 126 53 126 119s-57 119-126 119" id="aq"/><path d="M338-1490V0H158v-1490h180" id="ar"/><path d="M538 24C308 24 148-78 108-271l171-41c32 123 123 178 257 178 156 0 256-77 256-169 0-77-54-128-164-154l-186-44c-203-48-300-148-300-305 0-192 176-326 414-326 230 0 351 112 402 269l-163 42c-31-80-94-158-238-158-133 0-233 69-233 162 0 83 57 129 188 160l169 40c203 48 298 149 298 302 0 196-179 339-441 339" id="as"/><path d="M471 26C259 26 90-98 90-318c0-256 228-303 435-329 202-27 287-16 287-108 0-139-79-219-234-219-161 0-248 86-283 164l-173-57c86-203 278-265 451-265 150 0 419 46 419 395V0H815v-152h-12C765-73 660 26 471 26zm31-159c199 0 310-134 310-271v-155c-30 35-226 55-295 64-131 17-246 59-246 186 0 116 97 176 231 176" id="at"/><path d="M628 24c-324 0-524-230-524-574 0-343 198-582 503-582 237 0 487 146 487 559v75H286c9 234 145 362 343 362 132 0 231-58 273-172l174 48C1024-91 857 24 628 24zM287-650h624c-17-190-120-322-304-322-192 0-309 151-320 322" id="au"/><path d="M537 14c-226 0-379-139-379-422v-710h180v695c0 172 97 275 253 275 160 0 281-109 281-300v-670h181V0H879v-209C806-46 684 14 537 14" id="av"/><path d="M158 0v-1118h174v172h12c41-113 157-188 290-188 26 0 70 2 91 3v181c-11-2-60-10-108-10-161 0-279 109-279 260V0H158" id="aw"/><g id="a"><use transform="matrix(0.010850694444444444,0,0,0.010850694444444444,0,0)" xlink:href="#ao"/><use transform="matrix(0.010850694444444444,0,0,0.010850694444444444,16.536458333333332,0)" xlink:href="#ap"/><use transform="matrix(0.010850694444444444,0,0,0.010850694444444444,23.80642361111111,0)" xlink:href="#aq"/><use transform="matrix(0.010850694444444444,0,0,0.010850694444444444,29.18836805555556,0)" xlink:href="#ar"/><use transform="matrix(0.010850694444444444,0,0,0.010850694444444444,34.5703125,0)" xlink:href="#aq"/><use transform="matrix(0.010850694444444444,0,0,0.010850694444444444,39.95225694444444,0)" xlink:href="#as"/><use transform="matrix(0.010850694444444444,0,0,0.010850694444444444,51.681857638888886,0)" xlink:href="#at"/><use transform="matrix(0.010850694444444444,0,0,0.010850694444444444,64.16015625,0)" xlink:href="#ap"/><use transform="matrix(0.010850694444444444,0,0,0.010850694444444444,71.21310763888889,0)" xlink:href="#au"/><use transform="matrix(0.010850694444444444,0,0,0.010850694444444444,84.16883680555556,0)" xlink:href="#av"/><use transform="matrix(0.010850694444444444,0,0,0.010850694444444444,97.30902777777777,0)" xlink:href="#aw"/></g><path d="M180 0v-1490h510c348 0 508 209 508 474 0 266-160 477-507 477H370V0H180zm190-706h312c236 0 327-133 327-310 0-176-91-307-329-307H370v617" id="ax"/><path d="M1096 418H916v-591h-14C865-111 790 24 577 24c-279 0-473-224-473-580 0-354 195-576 474-576 218 0 287 134 324 193h20v-179h174V418zM604-137c203 0 314-172 314-421 0-247-108-413-314-413-212 0-317 181-317 413 0 235 108 421 317 421" id="ay"/><path d="M798-719v166H144v-166h654" id="az"/><path d="M180 0v-1490h270l367 940c28 72 75 218 110 339 35-117 81-264 110-339l362-940h271V0h-187c2-448-5-837 7-1287-157 497-311 829-483 1287H842C666-458 514-784 354-1284c12 438 5 843 7 1284H180" id="aA"/><g id="b"><use transform="matrix(0.010850694444444444,0,0,0.010850694444444444,0,0)" xlink:href="#ax"/><use transform="matrix(0.010850694444444444,0,0,0.010850694444444444,14.192708333333332,0)" xlink:href="#aq"/><use transform="matrix(0.010850694444444444,0,0,0.010850694444444444,19.57465277777778,0)" xlink:href="#ay"/><use transform="matrix(0.010850694444444444,0,0,0.010850694444444444,33.181423611111114,0)" xlink:href="#av"/><use transform="matrix(0.010850694444444444,0,0,0.010850694444444444,46.32161458333333,0)" xlink:href="#au"/><use transform="matrix(0.010850694444444444,0,0,0.010850694444444444,59.27734375,0)" xlink:href="#az"/><use transform="matrix(0.010850694444444444,0,0,0.010850694444444444,69.49869791666667,0)" xlink:href="#aA"/><use transform="matrix(0.010850694444444444,0,0,0.010850694444444444,89.57248263888889,0)" xlink:href="#au"/></g><path d="M52 0l541-1490h220L1361 0h-200l-149-416H398L254 0H52zm404-582h497c-103-290-145-390-251-756-108 377-145 460-246 756" id="aB"/><path d="M158 418v-1536h174v179h20c37-59 106-193 324-193 279 0 474 222 474 576 0 356-194 580-473 580-213 0-288-135-325-197h-14v591H158zm492-555c209 0 317-186 317-421 0-232-105-413-317-413-206 0-314 166-314 413 0 249 111 421 314 421" id="aC"/><path d="M613 24c-304 0-509-231-509-576 0-350 205-580 509-580 216 0 392 114 453 309l-173 49c-33-115-133-197-280-197-223 0-326 196-326 419 0 220 103 415 326 415 150 0 252-85 285-206l172 49C1010-95 832 24 613 24" id="aD"/><path d="M613 24c-304 0-509-231-509-576 0-350 205-580 509-580 305 0 511 230 511 580 0 345-206 576-511 576zm0-161c226 0 329-195 329-415 0-222-103-419-329-419-223 0-326 196-326 419 0 220 103 415 326 415" id="aE"/><path d="M338-670V0H158v-1118h173l1 207c72-158 192-221 342-221 226 0 378 139 378 422V0H872v-695c0-172-96-275-252-275-161 0-282 109-282 300" id="aF"/><g id="c"><use transform="matrix(0.010850694444444444,0,0,0.010850694444444444,0,0)" xlink:href="#aB"/><use transform="matrix(0.010850694444444444,0,0,0.010850694444444444,15.33203125,0)" xlink:href="#aC"/><use transform="matrix(0.010850694444444444,0,0,0.010850694444444444,28.938802083333332,0)" xlink:href="#aC"/><use transform="matrix(0.010850694444444444,0,0,0.010850694444444444,42.545572916666664,0)" xlink:href="#ar"/><use transform="matrix(0.010850694444444444,0,0,0.010850694444444444,47.92751736111111,0)" xlink:href="#aq"/><use transform="matrix(0.010850694444444444,0,0,0.010850694444444444,53.30946180555556,0)" xlink:href="#aD"/><use transform="matrix(0.010850694444444444,0,0,0.010850694444444444,66.22178819444443,0)" xlink:href="#at"/><use transform="matrix(0.010850694444444444,0,0,0.010850694444444444,78.70008680555554,0)" xlink:href="#ap"/><use transform="matrix(0.010850694444444444,0,0,0.010850694444444444,85.97005208333331,0)" xlink:href="#aq"/><use transform="matrix(0.010850694444444444,0,0,0.010850694444444444,91.35199652777776,0)" xlink:href="#aE"/><use transform="matrix(0.010850694444444444,0,0,0.010850694444444444,104.67664930555553,0)" xlink:href="#aF"/></g><path d="M158 0v-1118h175l1 205c55-151 181-225 313-225 147 0 245 90 285 228 53-141 190-228 352-228 194 0 352 125 352 384V0h-181v-749c0-161-105-225-225-225-151 0-243 103-243 244V0H807v-767c0-124-93-207-219-207-131 0-250 92-250 270V0H158" id="aG"/><path d="M677 24c-213 0-288-135-325-197h-20V0H158v-1490h180v551h14c37-59 106-193 324-193 279 0 474 222 474 576 0 356-194 580-473 580zm-27-161c209 0 317-186 317-421 0-232-105-413-317-413-206 0-314 166-314 413 0 249 111 421 314 421" id="aH"/><g id="d"><use transform="matrix(0.010850694444444444,0,0,0.010850694444444444,0,0)" xlink:href="#aG"/><use transform="matrix(0.010850694444444444,0,0,0.010850694444444444,19.466145833333332,0)" xlink:href="#aE"/><use transform="matrix(0.010850694444444444,0,0,0.010850694444444444,32.79079861111111,0)" xlink:href="#aH"/><use transform="matrix(0.010850694444444444,0,0,0.010850694444444444,46.39756944444444,0)" xlink:href="#aq"/><use transform="matrix(0.010850694444444444,0,0,0.010850694444444444,51.779513888888886,0)" xlink:href="#ar"/><use transform="matrix(0.010850694444444444,0,0,0.010850694444444444,57.16145833333333,0)" xlink:href="#au"/></g><path d="M180 0v-1490h528c311 0 458 177 458 395 0 191-114 278-244 313v14c139 9 302 137 302 371 0 225-148 397-499 397H180zm190-168h350c232 0 321-102 321-231 0-149-120-277-311-277H370v508zm0-668h328c160 0 286-101 286-255 0-129-87-231-280-231H370v486" id="aI"/><path d="M158 0v-1490h180v865h22l478-493h223L593-638 1096 0H865L456-523 338-412V0H158" id="aJ"/><path d="M577 24c-279 0-473-224-473-580 0-354 195-576 474-576 218 0 287 134 324 193h14v-551h180V0H922v-173h-20C865-111 790 24 577 24zm27-161c203 0 314-172 314-421 0-247-108-413-314-413-212 0-317 181-317 413 0 235 108 421 317 421" id="aK"/><g id="e"><use transform="matrix(0.010850694444444444,0,0,0.010850694444444444,0,0)" xlink:href="#aI"/><use transform="matrix(0.010850694444444444,0,0,0.010850694444444444,14.539930555555555,0)" xlink:href="#at"/><use transform="matrix(0.010850694444444444,0,0,0.010850694444444444,27.018229166666664,0)" xlink:href="#aD"/><use transform="matrix(0.010850694444444444,0,0,0.010850694444444444,39.713541666666664,0)" xlink:href="#aJ"/><use transform="matrix(0.010850694444444444,0,0,0.010850694444444444,51.41059027777778,0)" xlink:href="#au"/><use transform="matrix(0.010850694444444444,0,0,0.010850694444444444,64.36631944444444,0)" xlink:href="#aF"/><use transform="matrix(0.010850694444444444,0,0,0.010850694444444444,77.49565972222221,0)" xlink:href="#aK"/></g><path d="M370-1490V0H180v-1490h190" id="aL"/><g id="f"><use transform="matrix(0.010850694444444444,0,0,0.010850694444444444,0,0)" xlink:href="#aB"/><use transform="matrix(0.010850694444444444,0,0,0.010850694444444444,15.33203125,0)" xlink:href="#ax"/><use transform="matrix(0.010850694444444444,0,0,0.010850694444444444,29.524739583333332,0)" xlink:href="#aL"/></g><path d="M218-607c0-325 108-727 258-974h175c-155 315-250 682-250 974 0 265 78 531 250 886H476C306-10 218-315 218-607" id="aM"/><path d="M180 0v-1490h224l606 953c40 63 108 177 176 312-27-437-7-821-13-1265h190V0h-226C860-448 622-778 356-1262c27 476 11 792 15 1262H180" id="aN"/><path d="M295 13c-75 0-135-60-135-135s60-135 135-135 135 60 135 135S370 13 295 13" id="aO"/><path d="M157-1118h181V80c1 225-123 350-364 338V252c126 9 184-48 183-172v-1198zm91-183c-68 0-125-53-125-119s57-119 125-119c69 0 126 53 126 119s-57 119-126 119" id="aP"/><g id="g"><use transform="matrix(0.010850694444444444,0,0,0.010850694444444444,0,0)" xlink:href="#aM"/><use transform="matrix(0.010850694444444444,0,0,0.010850694444444444,8.10546875,0)" xlink:href="#aN"/><use transform="matrix(0.010850694444444444,0,0,0.010850694444444444,24.84809027777778,0)" xlink:href="#aE"/><use transform="matrix(0.010850694444444444,0,0,0.010850694444444444,38.17274305555556,0)" xlink:href="#aK"/><use transform="matrix(0.010850694444444444,0,0,0.010850694444444444,51.779513888888886,0)" xlink:href="#au"/><use transform="matrix(0.010850694444444444,0,0,0.010850694444444444,64.73524305555556,0)" xlink:href="#aO"/><use transform="matrix(0.010850694444444444,0,0,0.010850694444444444,71.13715277777779,0)" xlink:href="#aP"/><use transform="matrix(0.010850694444444444,0,0,0.010850694444444444,76.51909722222223,0)" xlink:href="#as"/></g><path d="M593-100v-404H195v-159h398v-403h169v403h398v159H762v404H593" id="aQ"/><use transform="matrix(0.010850694444444444,0,0,0.010850694444444444,0,0)" xlink:href="#aQ" id="h"/><path d="M180 0v-1490h908v168H370v486h669v168H370v500h727V0H180" id="aR"/><path d="M65 0l393-574-370-544h210c88 136 192 297 267 435 67-142 176-302 264-435h206L661-564 1053 0H844c-94-144-206-310-287-458C484-308 366-142 273 0H65" id="aS"/><path d="M96 279C273-86 346-350 346-607c0-292-95-659-250-974h175c150 246 258 650 258 974 0 297-91 602-258 886H96" id="aT"/><g id="i"><use transform="matrix(0.010850694444444444,0,0,0.010850694444444444,0,0)" xlink:href="#aR"/><use transform="matrix(0.010850694444444444,0,0,0.010850694444444444,13.35720486111111,0)" xlink:href="#aS"/><use transform="matrix(0.010850694444444444,0,0,0.010850694444444444,25.48828125,0)" xlink:href="#aC"/><use transform="matrix(0.010850694444444444,0,0,0.010850694444444444,39.09505208333333,0)" xlink:href="#aw"/><use transform="matrix(0.010850694444444444,0,0,0.010850694444444444,47.09201388888888,0)" xlink:href="#au"/><use transform="matrix(0.010850694444444444,0,0,0.010850694444444444,60.04774305555554,0)" xlink:href="#as"/><use transform="matrix(0.010850694444444444,0,0,0.010850694444444444,71.77734374999999,0)" xlink:href="#as"/><use transform="matrix(0.010850694444444444,0,0,0.010850694444444444,83.50694444444443,0)" xlink:href="#aT"/></g><path d="M135 0v-1490h980v253H440v416h609v249H440V0H135" id="aU"/><path d="M128 0v-1118h300V0H128zm150-1264c-91 0-165-68-165-154 0-85 74-154 165-154 90 0 165 69 165 154 0 86-75 154-165 154" id="aV"/><path d="M128 0v-1118h290v195h12c54-169 184-238 367-200v268c-27-8-86-15-130-15-138 0-239 95-239 234V0H128" id="aW"/><path d="M633 22C291 22 81-200 81-553c0-345 210-579 537-579 292 0 525 185 525 567v84H378c7 183 109 277 260 277 105 0 184-46 216-132l272 51C1071-99 893 22 633 22zM380-669h474c-15-146-94-237-233-237-143 0-229 99-241 237" id="aX"/><path d="M754 19C571 19 479-89 437-179h-14V0H128v-1490h300v560h9c41-89 129-202 319-202 248 0 453 193 453 575 0 372-197 576-455 576zm-92-241c156 0 240-139 240-336 0-196-83-334-240-334-154 0-241 131-241 334 0 202 88 336 241 336" id="aY"/><path d="M440 22C227 22 68-92 68-313c0-250 202-322 422-343 195-21 271-24 271-105 0-95-63-149-175-149-116 0-187 57-211 129l-275-46c57-194 237-305 487-305 240 0 474 108 474 379V0H777v-155h-10C713-51 605 22 440 22zm85-211c140 0 238-93 238-211v-121c-37 26-156 42-222 51-111 16-185 59-185 149 0 87 70 132 169 132" id="aZ"/><path d="M572 22C302 22 117-98 78-306l279-48c29 105 101 156 224 156 114 0 185-48 185-115 0-118-228-130-337-155-215-49-322-150-322-317 0-215 187-347 470-347 265 0 424 116 466 298l-266 47c-24-76-87-130-196-130-98 0-174 46-174 113 0 56 38 95 144 117l201 40c216 44 320 143 320 302 0 220-207 367-500 367" id="ba"/><g id="j"><use transform="matrix(0.010416666666666668,0,0,0.010416666666666668,0,0)" xlink:href="#aU"/><use transform="matrix(0.010416666666666668,0,0,0.010416666666666668,12.520833333333334,0)" xlink:href="#aV"/><use transform="matrix(0.010416666666666668,0,0,0.010416666666666668,18.302083333333336,0)" xlink:href="#aW"/><use transform="matrix(0.010416666666666668,0,0,0.010416666666666668,26.468750000000007,0)" xlink:href="#aX"/><use transform="matrix(0.010416666666666668,0,0,0.010416666666666668,39.17708333333334,0)" xlink:href="#aY"/><use transform="matrix(0.010416666666666668,0,0,0.010416666666666668,52.833333333333336,0)" xlink:href="#aZ"/><use transform="matrix(0.010416666666666668,0,0,0.010416666666666668,65.21875000000001,0)" xlink:href="#ba"/><use transform="matrix(0.010416666666666668,0,0,0.010416666666666668,77.16666666666669,0)" xlink:href="#aX"/></g><path d="M49 0l509-1490h400L1480 0h-339l-115-346H497L386 0H49zm524-585h374c-75-213-124-402-192-666-66 268-110 453-182 666" id="bb"/><path d="M513 14c-232 0-385-159-385-421v-711h300v659c0 139 76 222 202 222 127 0 217-86 217-234v-647h301V0H864l-4-232C797-74 683 14 513 14" id="bc"/><path d="M683-1118v229H474v562c0 71 29 104 102 104 23 0 73-7 95-13l43 225C647 9 580 16 520 16 296 16 174-96 174-301v-588H20v-229h154v-266h300v266h209" id="bd"/><path d="M428-647V0H128v-1490h294v586c65-146 175-228 341-228 232 0 385 159 385 421V0H847v-659c0-139-76-222-202-222-128 0-217 86-217 234" id="be"/><path d="M428-647V0H128v-1118h283l4 231c63-156 176-245 348-245 232 0 384 159 384 421V0H847v-659c0-139-76-222-202-222-128 0-217 86-217 234" id="bf"/><path d="M628 22C291 22 81-210 81-554c0-346 210-578 547-578 265 0 455 142 497 372l-279 52c-25-116-99-188-215-188-160 0-244 139-244 341 0 200 84 341 244 341 116 0 193-74 217-195l279 51C1085-123 896 22 628 22" id="bg"/><path d="M628 22C291 22 81-210 81-554c0-346 210-578 547-578 336 0 547 232 547 578 0 344-211 576-547 576zm0-236c160 0 242-146 242-341 0-197-82-341-242-341S387-753 387-555c0 195 81 341 241 341" id="bh"/><g id="k"><use transform="matrix(0.010416666666666668,0,0,0.010416666666666668,0,0)" xlink:href="#bb"/><use transform="matrix(0.010416666666666668,0,0,0.010416666666666668,15.927083333333336,0)" xlink:href="#bc"/><use transform="matrix(0.010416666666666668,0,0,0.010416666666666668,29.208333333333336,0)" xlink:href="#bd"/><use transform="matrix(0.010416666666666668,0,0,0.010416666666666668,37.07291666666667,0)" xlink:href="#be"/><use transform="matrix(0.010416666666666668,0,0,0.010416666666666668,50.35416666666667,0)" xlink:href="#aX"/><use transform="matrix(0.010416666666666668,0,0,0.010416666666666668,63.06250000000001,0)" xlink:href="#bf"/><use transform="matrix(0.010416666666666668,0,0,0.010416666666666668,76.34375000000001,0)" xlink:href="#bd"/><use transform="matrix(0.010416666666666668,0,0,0.010416666666666668,84.15625000000001,0)" xlink:href="#aV"/><use transform="matrix(0.010416666666666668,0,0,0.010416666666666668,89.93750000000001,0)" xlink:href="#bg"/><use transform="matrix(0.010416666666666668,0,0,0.010416666666666668,102.69791666666667,0)" xlink:href="#aZ"/><use transform="matrix(0.010416666666666668,0,0,0.010416666666666668,115.08333333333334,0)" xlink:href="#bd"/><use transform="matrix(0.010416666666666668,0,0,0.010416666666666668,122.89583333333334,0)" xlink:href="#aV"/><use transform="matrix(0.010416666666666668,0,0,0.010416666666666668,128.67708333333334,0)" xlink:href="#bh"/><use transform="matrix(0.010416666666666668,0,0,0.010416666666666668,141.76041666666669,0)" xlink:href="#bf"/></g><path d="M226-608c54-324 228-726 419-973h175c-209 318-363 684-411 972-44 264-11 530 103 888H337C213-15 178-320 226-608" id="bi"/><path d="M481 24C202 24 45-202 104-557s293-575 571-575c216 0 263 132 291 193h15l29-179h181L1006 0H831l28-173h-21C788-107 693 24 481 24zm56-161c204 0 342-174 383-422s-41-412-245-412c-215 0-350 183-388 412-39 235 39 422 250 422" id="bj"/><path d="M443 14C219 14 87-123 134-408l117-710h180L317-423c-28 171 49 275 206 275s300-105 332-300l110-670h181L961 0H787l35-209C722-47 590 14 443 14" id="bk"/><path d="M691-1118l-25 154H437L325-290c-17 103 16 144 108 144 23 0 63-6 94-12L538-6c-36 12-87 20-136 20-196 0-290-109-260-290l114-688H88l25-154h169l44-266h180l-44 266h229" id="bl"/><path d="M356-670L245 0H65l247-1490h180l-94 565c97-150 219-207 362-207 226 0 365 139 318 422L960 0H779l116-695c29-174-53-275-208-275-158 0-299 107-331 300" id="bm"/><path d="M535 24C259 24 94-144 94-427c0-392 272-715 610-715 216 0 356 119 356 305 0 244-237 344-790 350-18 199 49 349 276 352 142 0 260-66 317-173l167 47C947-85 756 24 535 24zM294-623c447-4 586-57 586-218 0-85-78-141-194-141-220 0-342 177-392 359" id="bn"/><path d="M356-664L245 0H65l186-1118h173l-32 197c96-152 219-211 366-211 232 0 366 145 319 428L960 0H779l117-701c29-174-48-269-198-269-165 0-310 115-342 306" id="bo"/><path d="M66 0l185-1118h180L246 0H66zm307-1301c-71 0-117-55-106-119s74-119 145-119c65 0 117 50 106 118s-78 120-145 120" id="bp"/><path d="M780-1118l-24 146H497L317 116C281 334 148 448-56 448c-43 0-82-5-117-17l45-161c143 34 239 0 264-153L316-972H89l24-146h227l13-77c43-287 254-417 541-345l-50 154c-23-5-81-8-121-8-107 0-167 63-189 196l-13 80h259" id="bq"/><path d="M528 24C258 24 94-156 94-433c0-354 228-699 603-699 222 0 381 120 410 314l-176 39c-14-114-95-192-238-192-272 0-419 288-419 536 0 167 76 298 258 298 155 0 277-90 329-211l166 58C935-93 745 24 528 24" id="br"/><path d="M528 24C258 24 94-156 94-433c0-355 229-699 603-699 270 0 436 178 436 458 0 359-234 698-605 698zm4-161c275 0 420-287 420-533 0-170-77-301-260-301-271 0-418 288-418 536 0 168 77 298 258 298" id="bs"/><g id="l"><use transform="matrix(0.010416666666666668,0,0,0.010416666666666668,0,0)" xlink:href="#bi"/><use transform="matrix(0.010416666666666668,0,0,0.010416666666666668,7.541666666666668,0)" xlink:href="#bj"/><use transform="matrix(0.010416666666666668,0,0,0.010416666666666668,20.63541666666667,0)" xlink:href="#bk"/><use transform="matrix(0.010416666666666668,0,0,0.010416666666666668,33.26041666666667,0)" xlink:href="#bl"/><use transform="matrix(0.010416666666666668,0,0,0.010416666666666668,40.26041666666667,0)" xlink:href="#bm"/><use transform="matrix(0.010416666666666668,0,0,0.010416666666666668,52.87500000000001,0)" xlink:href="#bn"/><use transform="matrix(0.010416666666666668,0,0,0.010416666666666668,65.15625000000001,0)" xlink:href="#bo"/><use transform="matrix(0.010416666666666668,0,0,0.010416666666666668,77.77083333333334,0)" xlink:href="#bl"/><use transform="matrix(0.010416666666666668,0,0,0.010416666666666668,84.77083333333334,0)" xlink:href="#bp"/><use transform="matrix(0.010416666666666668,0,0,0.010416666666666668,89.94791666666667,0)" xlink:href="#bq"/><use transform="matrix(0.010416666666666668,0,0,0.010416666666666668,97.90624999999999,0)" xlink:href="#bp"/><use transform="matrix(0.010416666666666668,0,0,0.010416666666666668,103.08333333333333,0)" xlink:href="#br"/><use transform="matrix(0.010416666666666668,0,0,0.010416666666666668,115.28125,0)" xlink:href="#bj"/><use transform="matrix(0.010416666666666668,0,0,0.010416666666666668,128.375,0)" xlink:href="#bl"/><use transform="matrix(0.010416666666666668,0,0,0.010416666666666668,135.375,0)" xlink:href="#bp"/><use transform="matrix(0.010416666666666668,0,0,0.010416666666666668,140.55208333333334,0)" xlink:href="#bs"/><use transform="matrix(0.010416666666666668,0,0,0.010416666666666668,153.35416666666669,0)" xlink:href="#bo"/></g><path d="M492 24C248 24 94-147 94-425c0-352 212-707 569-707 222 0 274 136 303 198h12l92-556h181L1004 0H829l30-173h-19C792-103 700 24 492 24zm32-161c268 0 407-295 407-549 0-175-80-285-247-285-266 0-408 283-408 536 0 174 79 298 248 298" id="bt"/><path d="M451 24C217 22 71-78 61-277l174-29c11 123 90 172 219 172 161 0 280-83 297-181 11-71-30-117-135-143l-179-44c-195-48-280-153-253-316 31-186 223-314 455-314 233 4 337 107 366 275l-165 30c-18-80-65-152-204-152-138 0-256 75-272 174-13 77 32 118 158 149l162 40c195 48 278 154 252 313C904-113 708 24 451 24" id="bu"/><g id="m"><use transform="matrix(0.010416666666666668,0,0,0.010416666666666668,0,0)" xlink:href="#bt"/><use transform="matrix(0.010416666666666668,0,0,0.010416666666666668,13.072916666666668,0)" xlink:href="#bn"/><use transform="matrix(0.010416666666666668,0,0,0.010416666666666668,25.354166666666668,0)" xlink:href="#bu"/></g><path d="M492-1490L245 0H65l247-1490h180" id="bv"/><path d="M66 0l185-1118h174l-28 172h12c78-136 219-209 411-185l-30 181c-211-47-398 67-428 250L246 0H66" id="bw"/><path d="M-43 280C186-71 310-340 354-607c48-291 15-654-89-973h176c108 246 149 649 95 974-48 289-184 595-403 886H-43" id="bx"/><g id="n"><use transform="matrix(0.010416666666666668,0,0,0.010416666666666668,0,0)" xlink:href="#bk"/><use transform="matrix(0.010416666666666668,0,0,0.010416666666666668,12.625000000000002,0)" xlink:href="#bl"/><use transform="matrix(0.010416666666666668,0,0,0.010416666666666668,19.625000000000004,0)" xlink:href="#bp"/><use transform="matrix(0.010416666666666668,0,0,0.010416666666666668,24.802083333333336,0)" xlink:href="#bv"/><use transform="matrix(0.010416666666666668,0,0,0.010416666666666668,29.968750000000004,0)" xlink:href="#bp"/><use transform="matrix(0.010416666666666668,0,0,0.010416666666666668,35.145833333333336,0)" xlink:href="#bu"/><use transform="matrix(0.010416666666666668,0,0,0.010416666666666668,46.395833333333336,0)" xlink:href="#bj"/><use transform="matrix(0.010416666666666668,0,0,0.010416666666666668,59.48958333333334,0)" xlink:href="#bl"/><use transform="matrix(0.010416666666666668,0,0,0.010416666666666668,66.28125,0)" xlink:href="#bn"/><use transform="matrix(0.010416666666666668,0,0,0.010416666666666668,78.5625,0)" xlink:href="#bk"/><use transform="matrix(0.010416666666666668,0,0,0.010416666666666668,91.18749999999999,0)" xlink:href="#bw"/><use transform="matrix(0.010416666666666668,0,0,0.010416666666666668,99.22916666666667,0)" xlink:href="#bu"/><use transform="matrix(0.010416666666666668,0,0,0.010416666666666668,110.47916666666669,0)" xlink:href="#bx"/></g><g id="o"><use transform="matrix(0.010416666666666668,0,0,0.010416666666666668,0,0)" xlink:href="#aU"/><use transform="matrix(0.010416666666666668,0,0,0.010416666666666668,12.520833333333334,0)" xlink:href="#aV"/><use transform="matrix(0.010416666666666668,0,0,0.010416666666666668,18.302083333333336,0)" xlink:href="#aW"/><use transform="matrix(0.010416666666666668,0,0,0.010416666666666668,26.468750000000007,0)" xlink:href="#aX"/><use transform="matrix(0.010416666666666668,0,0,0.010416666666666668,39.17708333333334,0)" xlink:href="#ba"/><use transform="matrix(0.010416666666666668,0,0,0.010416666666666668,51.125000000000014,0)" xlink:href="#bd"/><use transform="matrix(0.010416666666666668,0,0,0.010416666666666668,58.729166666666686,0)" xlink:href="#bh"/><use transform="matrix(0.010416666666666668,0,0,0.010416666666666668,71.81250000000001,0)" xlink:href="#aW"/><use transform="matrix(0.010416666666666668,0,0,0.010416666666666668,79.97916666666669,0)" xlink:href="#aX"/></g><path d="M579 22C270 22 81-162 81-393c0-177 110-281 274-393-80-101-143-210-143-345 0-213 160-377 403-377 238 0 385 158 385 351 0 138-76 251-198 340l-89 64 251 289c39-73 63-161 63-258h251c0 203-53 358-134 465L1367 0h-316l-91-101C852-17 708 22 579 22zm-69-628c-83 57-139 119-136 201 0 113 86 185 214 185 72 0 145-22 210-63zm56-319c74-50 193-114 190-218 0-69-50-123-139-123s-146 55-146 138c0 67 36 129 95 203" id="by"/><use transform="matrix(0.010416666666666668,0,0,0.010416666666666668,0,0)" xlink:href="#by" id="p"/><path d="M681 22C323 22 94-145 85-462h297c10 151 131 226 296 226 163 0 271-77 271-190 0-102-95-149-257-189l-164-41c-252-61-403-188-403-405 0-269 236-449 560-449 330 0 546 183 551 445H941c-11-119-106-188-259-188-156 0-244 72-244 172-3 156 226 185 373 221 250 61 445 186 445 436 0 271-213 446-575 446" id="bz"/><path d="M625 442c-280 0-454-114-503-274l258-72c28 63 97 128 243 128 153 0 246-69 246-216v-206h-23C805-108 717-16 536-16 284-16 81-191 81-561c0-378 208-571 456-571 188 0 280 113 321 202h13v-188h295V-9c0 303-226 451-541 451zm5-686c153 0 240-119 240-319 0-198-86-329-240-329-158 0-241 137-241 329 0 195 85 319 241 319" id="bA"/><g id="q"><use transform="matrix(0.010416666666666668,0,0,0.010416666666666668,0,0)" xlink:href="#bz"/><use transform="matrix(0.010416666666666668,0,0,0.010416666666666668,13.968750000000002,0)" xlink:href="#bd"/><use transform="matrix(0.010416666666666668,0,0,0.010416666666666668,21.572916666666668,0)" xlink:href="#bh"/><use transform="matrix(0.010416666666666668,0,0,0.010416666666666668,34.65625,0)" xlink:href="#aW"/><use transform="matrix(0.010416666666666668,0,0,0.010416666666666668,43.052083333333336,0)" xlink:href="#aZ"/><use transform="matrix(0.010416666666666668,0,0,0.010416666666666668,55.4375,0)" xlink:href="#bA"/><use transform="matrix(0.010416666666666668,0,0,0.010416666666666668,68.91666666666667,0)" xlink:href="#aX"/></g><path d="M65 0l247-1490h180L349-625h22l559-493h223L606-638 1003 0H772L449-523 313-412 245 0H65" id="bB"/><path d="M456 442C197 442 73 327 25 209l155-84c33 60 86 160 280 160 184 0 332-89 363-272l37-218-16 4C793-134 707-18 498-18 260-18 96-170 96-443c0-341 216-689 568-689 222 0 274 139 301 198l21-5 30-179h175L999 35c-48 288-275 407-543 407zm75-620c274 0 401-267 401-512 0-170-80-281-247-281-260 0-408 269-408 518 0 167 83 275 254 275" id="bC"/><g id="r"><use transform="matrix(0.010416666666666668,0,0,0.010416666666666668,0,0)" xlink:href="#bi"/><use transform="matrix(0.010416666666666668,0,0,0.010416666666666668,7.781250000000001,0)" xlink:href="#bu"/><use transform="matrix(0.010416666666666668,0,0,0.010416666666666668,19.031250000000004,0)" xlink:href="#bl"/><use transform="matrix(0.010416666666666668,0,0,0.010416666666666668,25.822916666666668,0)" xlink:href="#bs"/><use transform="matrix(0.010416666666666668,0,0,0.010416666666666668,38.62500000000001,0)" xlink:href="#br"/><use transform="matrix(0.010416666666666668,0,0,0.010416666666666668,50.82291666666667,0)" xlink:href="#bB"/><use transform="matrix(0.010416666666666668,0,0,0.010416666666666668,62.06250000000001,0)" xlink:href="#bj"/><use transform="matrix(0.010416666666666668,0,0,0.010416666666666668,75.15625000000001,0)" xlink:href="#bC"/><use transform="matrix(0.010416666666666668,0,0,0.010416666666666668,88.23958333333334,0)" xlink:href="#bn"/></g><g id="s"><use transform="matrix(0.010416666666666668,0,0,0.010416666666666668,0,0)" xlink:href="#bt"/><use transform="matrix(0.010416666666666668,0,0,0.010416666666666668,13.072916666666668,0)" xlink:href="#bn"/><use transform="matrix(0.010416666666666668,0,0,0.010416666666666668,25.354166666666668,0)" xlink:href="#bu"/></g><path d="M535 24C259 24 94-144 94-427c0-392 272-715 610-715 216 0 356 119 356 305 0 244-237 344-790 350-18 199 49 349 276 352 142 0 260-66 317-173l167 47C947-85 756 24 535 24zM294-623c447-4 586-57 586-218 0-85-78-141-194-141-220 0-342 177-392 359zm352-659l186-276h201l-240 276H646" id="bD"/><g id="t"><use transform="matrix(0.010416666666666668,0,0,0.010416666666666668,0,0)" xlink:href="#bt"/><use transform="matrix(0.010416666666666668,0,0,0.010416666666666668,13.072916666666668,0)" xlink:href="#bs"/><use transform="matrix(0.010416666666666668,0,0,0.010416666666666668,25.874999999999996,0)" xlink:href="#bo"/><use transform="matrix(0.010416666666666668,0,0,0.010416666666666668,38.489583333333336,0)" xlink:href="#bo"/><use transform="matrix(0.010416666666666668,0,0,0.010416666666666668,51.10416666666667,0)" xlink:href="#bD"/><use transform="matrix(0.010416666666666668,0,0,0.010416666666666668,63.38541666666667,0)" xlink:href="#bn"/><use transform="matrix(0.010416666666666668,0,0,0.010416666666666668,75.66666666666667,0)" xlink:href="#bu"/></g><g id="u"><use transform="matrix(0.010416666666666668,0,0,0.010416666666666668,0,0)" xlink:href="#bn"/><use transform="matrix(0.010416666666666668,0,0,0.010416666666666668,12.281250000000002,0)" xlink:href="#bl"/></g><g id="v"><use transform="matrix(0.010416666666666668,0,0,0.010416666666666668,0,0)" xlink:href="#bq"/><use transform="matrix(0.010416666666666668,0,0,0.010416666666666668,7.958333333333334,0)" xlink:href="#bp"/><use transform="matrix(0.010416666666666668,0,0,0.010416666666666668,13.135416666666668,0)" xlink:href="#br"/><use transform="matrix(0.010416666666666668,0,0,0.010416666666666668,25.333333333333336,0)" xlink:href="#bm"/><use transform="matrix(0.010416666666666668,0,0,0.010416666666666668,37.94791666666667,0)" xlink:href="#bp"/><use transform="matrix(0.010416666666666668,0,0,0.010416666666666668,43.12500000000001,0)" xlink:href="#bn"/><use transform="matrix(0.010416666666666668,0,0,0.010416666666666668,55.40625000000001,0)" xlink:href="#bw"/><use transform="matrix(0.010416666666666668,0,0,0.010416666666666668,63.44791666666667,0)" xlink:href="#bu"/><use transform="matrix(0.010416666666666668,0,0,0.010416666666666668,74.69791666666667,0)" xlink:href="#bx"/></g><path d="M135 0v-1490h997v253H440v360h640v249H440v375h694V0H135" id="bE"/><path d="M42 0l360-574-338-544h324c72 124 151 261 209 394 58-134 140-271 215-394h318L785-570 1146 0H824c-79-136-169-280-234-425C528-278 439-134 360 0H42" id="bF"/><path d="M128 418v-1536h295v188h14c41-89 129-202 319-202 248 0 453 193 453 575 0 372-197 576-455 576-183 0-275-108-317-198h-9v597H128zm534-640c156 0 240-139 240-336 0-196-83-334-240-334-154 0-241 131-241 334 0 202 88 336 241 336" id="bG"/><g id="w"><use transform="matrix(0.010416666666666668,0,0,0.010416666666666668,0,0)" xlink:href="#bE"/><use transform="matrix(0.010416666666666668,0,0,0.010416666666666668,12.958333333333334,0)" xlink:href="#bF"/><use transform="matrix(0.010416666666666668,0,0,0.010416666666666668,25.333333333333336,0)" xlink:href="#bG"/><use transform="matrix(0.010416666666666668,0,0,0.010416666666666668,38.78125,0)" xlink:href="#bh"/></g><path d="M389 0L147-1118h188c55 314 135 617 168 951 141-329 323-637 482-951h205L578 0H389" id="bH"/><g id="y"><use transform="matrix(0.010416666666666668,0,0,0.010416666666666668,0,0)" xlink:href="#bi"/><use transform="matrix(0.010416666666666668,0,0,0.010416666666666668,7.541666666666668,0)" xlink:href="#bn"/><use transform="matrix(0.010416666666666668,0,0,0.010416666666666668,19.82291666666667,0)" xlink:href="#bo"/><use transform="matrix(0.010416666666666668,0,0,0.010416666666666668,32.12500000000001,0)" xlink:href="#bH"/><use transform="matrix(0.010416666666666668,0,0,0.010416666666666668,43.69791666666667,0)" xlink:href="#bs"/><use transform="matrix(0.010416666666666668,0,0,0.010416666666666668,56.50000000000001,0)" xlink:href="#bp"/></g><g id="z"><use transform="matrix(0.010416666666666668,0,0,0.010416666666666668,0,0)" xlink:href="#bo"/><use transform="matrix(0.010416666666666668,0,0,0.010416666666666668,12.614583333333334,0)" xlink:href="#bs"/><use transform="matrix(0.010416666666666668,0,0,0.010416666666666668,25.416666666666668,0)" xlink:href="#bl"/><use transform="matrix(0.010416666666666668,0,0,0.010416666666666668,32.41666666666667,0)" xlink:href="#bp"/><use transform="matrix(0.010416666666666668,0,0,0.010416666666666668,37.59375000000001,0)" xlink:href="#bq"/><use transform="matrix(0.010416666666666668,0,0,0.010416666666666668,45.552083333333336,0)" xlink:href="#bp"/><use transform="matrix(0.010416666666666668,0,0,0.010416666666666668,50.72916666666668,0)" xlink:href="#br"/><use transform="matrix(0.010416666666666668,0,0,0.010416666666666668,62.92708333333334,0)" xlink:href="#bj"/><use transform="matrix(0.010416666666666668,0,0,0.010416666666666668,76.02083333333334,0)" xlink:href="#bl"/><use transform="matrix(0.010416666666666668,0,0,0.010416666666666668,83.02083333333334,0)" xlink:href="#bp"/><use transform="matrix(0.010416666666666668,0,0,0.010416666666666668,88.19791666666667,0)" xlink:href="#bs"/><use transform="matrix(0.010416666666666668,0,0,0.010416666666666668,100.99999999999999,0)" xlink:href="#bo"/><use transform="matrix(0.010416666666666668,0,0,0.010416666666666668,113.61458333333333,0)" xlink:href="#bu"/></g><path d="M-4 418l255-1536h174l-30 179h9c47-68 143-193 355-193 246 0 401 170 401 447 0 348-211 709-568 709-219 0-274-140-300-202h-17l-99 596H-4zm572-555c267 0 411-296 411-543 0-170-78-291-250-291-269 0-405 284-405 542 0 177 81 292 244 292" id="bI"/><g id="A"><use transform="matrix(0.010416666666666668,0,0,0.010416666666666668,0,0)" xlink:href="#bI"/><use transform="matrix(0.010416666666666668,0,0,0.010416666666666668,13.072916666666668,0)" xlink:href="#bk"/><use transform="matrix(0.010416666666666668,0,0,0.010416666666666668,25.697916666666668,0)" xlink:href="#bu"/><use transform="matrix(0.010416666666666668,0,0,0.010416666666666668,36.94791666666667,0)" xlink:href="#bm"/><use transform="matrix(0.010416666666666668,0,0,0.010416666666666668,49.56250000000001,0)" xlink:href="#bx"/></g><g id="B"><use transform="matrix(0.010850694444444444,0,0,0.010850694444444444,0,0)" xlink:href="#aB"/><use transform="matrix(0.010850694444444444,0,0,0.010850694444444444,15.33203125,0)" xlink:href="#ax"/><use transform="matrix(0.010850694444444444,0,0,0.010850694444444444,29.524739583333332,0)" xlink:href="#aL"/></g><path d="M180 0v-1490h190v644h782v-644h190V0h-190v-678H370V0H180" id="bJ"/><path d="M98-1322v-168h1126v168H757V0H567v-1322H98" id="bK"/><path d="M657 26c-323 0-524-166-541-416h195c15 169 171 246 346 246 202 0 356-106 356-265 5-203-294-238-475-293-239-73-380-191-380-389 0-252 224-419 512-419 294 0 499 171 508 396H992c-17-145-151-228-328-228-193 0-321 102-321 242 0 156 175 211 284 241l149 41c160 44 422 134 422 412 0 244-197 432-541 432" id="bL"/><g id="C"><use transform="matrix(0.010850694444444444,0,0,0.010850694444444444,0,0)" xlink:href="#bJ"/><use transform="matrix(0.010850694444444444,0,0,0.010850694444444444,16.514756944444443,0)" xlink:href="#bK"/><use transform="matrix(0.010850694444444444,0,0,0.010850694444444444,30.859375,0)" xlink:href="#bK"/><use transform="matrix(0.010850694444444444,0,0,0.010850694444444444,45.20399305555556,0)" xlink:href="#ax"/><use transform="matrix(0.010850694444444444,0,0,0.010850694444444444,59.396701388888886,0)" xlink:href="#bL"/></g><path d="M180 0v-1490h510c348 0 508 194 508 460 0 198-88 351-276 417L1256 0h-220L726-579c-117 2-238 0-356 1V0H180zm190-747h312c235 0 327-108 327-283 0-177-92-293-329-293H370v576" id="bM"/><path d="M628 24c-324 0-524-230-524-574 0-343 198-582 503-582 237 0 487 146 487 559v75H286c9 234 145 362 343 362 132 0 231-58 273-172l174 48C1024-91 857 24 628 24zM287-650h624c-17-190-120-322-304-322-192 0-309 151-320 322zm172-632H282v-9l235-267h171l236 267v9H745l-142-175" id="bN"/><g id="D"><use transform="matrix(0.010850694444444444,0,0,0.010850694444444444,0,0)" xlink:href="#bM"/><use transform="matrix(0.010850694444444444,0,0,0.010850694444444444,13.975694444444445,0)" xlink:href="#au"/><use transform="matrix(0.010850694444444444,0,0,0.010850694444444444,26.931423611111104,0)" xlink:href="#ay"/><use transform="matrix(0.010850694444444444,0,0,0.010850694444444444,40.53819444444444,0)" xlink:href="#av"/><use transform="matrix(0.010850694444444444,0,0,0.010850694444444444,53.678385416666664,0)" xlink:href="#bN"/><use transform="matrix(0.010850694444444444,0,0,0.010850694444444444,66.63411458333333,0)" xlink:href="#ap"/><use transform="matrix(0.010850694444444444,0,0,0.010850694444444444,73.68706597222221,0)" xlink:href="#au"/></g><path d="M120 396l69-226c123 42 245 23 254-107l8-60L31-1118h319c87 288 199 559 259 872 72-308 185-583 277-872h315L726 132c-68 181-186 294-410 294-79 0-153-13-196-30" id="bO"/><path d="M633 22C291 22 81-200 81-553c0-345 210-579 537-579 292 0 525 185 525 567v84H378c7 183 109 277 260 277 105 0 184-46 216-132l272 51C1071-99 893 22 633 22zM380-669h474c-15-146-94-237-233-237-143 0-229 99-241 237zm130-591l-206-311h278l139 311H510" id="bP"/><path d="M128 0v-1118h278l12 217c60-163 185-234 319-234 143 0 236 81 288 251 63-172 205-251 359-251 205 0 357 138 357 381V0h-301v-697c0-126-76-187-177-187-114 0-184 79-184 196V0H789v-705c0-109-72-179-174-179-106 0-187 74-187 208V0H128" id="bQ"/><g id="E"><use transform="matrix(0.010416666666666668,0,0,0.010416666666666668,0,0)" xlink:href="#bz"/><use transform="matrix(0.010416666666666668,0,0,0.010416666666666668,13.968750000000002,0)" xlink:href="#bO"/><use transform="matrix(0.010416666666666668,0,0,0.010416666666666668,26.812500000000004,0)" xlink:href="#ba"/><use transform="matrix(0.010416666666666668,0,0,0.010416666666666668,38.76041666666667,0)" xlink:href="#bd"/><use transform="matrix(0.010416666666666668,0,0,0.010416666666666668,46.364583333333336,0)" xlink:href="#bP"/><use transform="matrix(0.010416666666666668,0,0,0.010416666666666668,59.07291666666667,0)" xlink:href="#bQ"/><use transform="matrix(0.010416666666666668,0,0,0.010416666666666668,78.54166666666667,0)" xlink:href="#aX"/></g><path d="M786 20C389 20 94-260 94-744c0-487 299-766 692-766 339 0 597 194 641 529h-309c-28-162-156-258-326-258-233 0-388 179-388 495 0 323 157 493 387 493 170 0 298-97 328-259h309c-34 277-266 530-642 530" id="bR"/><g id="F"><use transform="matrix(0.010416666666666668,0,0,0.010416666666666668,0,0)" xlink:href="#bR"/><use transform="matrix(0.010416666666666668,0,0,0.010416666666666668,15.781250000000002,0)" xlink:href="#bh"/><use transform="matrix(0.010416666666666668,0,0,0.010416666666666668,28.864583333333336,0)" xlink:href="#bf"/><use transform="matrix(0.010416666666666668,0,0,0.010416666666666668,42.145833333333336,0)" xlink:href="#bd"/><use transform="matrix(0.010416666666666668,0,0,0.010416666666666668,49.74999999999999,0)" xlink:href="#aX"/><use transform="matrix(0.010416666666666668,0,0,0.010416666666666668,62.45833333333334,0)" xlink:href="#bf"/><use transform="matrix(0.010416666666666668,0,0,0.010416666666666668,75.73958333333334,0)" xlink:href="#bf"/><use transform="matrix(0.010416666666666668,0,0,0.010416666666666668,89.02083333333334,0)" xlink:href="#aX"/><use transform="matrix(0.010416666666666668,0,0,0.010416666666666668,101.72916666666667,0)" xlink:href="#bc"/><use transform="matrix(0.010416666666666668,0,0,0.010416666666666668,115.01041666666669,0)" xlink:href="#aW"/></g><path d="M428-1490V0H128v-1490h300" id="bS"/><g id="G"><use transform="matrix(0.010416666666666668,0,0,0.010416666666666668,0,0)" xlink:href="#bb"/><use transform="matrix(0.010416666666666668,0,0,0.010416666666666668,15.927083333333336,0)" xlink:href="#bG"/><use transform="matrix(0.010416666666666668,0,0,0.010416666666666668,29.375000000000004,0)" xlink:href="#bG"/><use transform="matrix(0.010416666666666668,0,0,0.010416666666666668,42.82291666666667,0)" xlink:href="#bS"/><use transform="matrix(0.010416666666666668,0,0,0.010416666666666668,48.60416666666667,0)" xlink:href="#aV"/><use transform="matrix(0.010416666666666668,0,0,0.010416666666666668,54.38541666666667,0)" xlink:href="#bg"/><use transform="matrix(0.010416666666666668,0,0,0.010416666666666668,67.14583333333334,0)" xlink:href="#aZ"/><use transform="matrix(0.010416666666666668,0,0,0.010416666666666668,79.53125000000001,0)" xlink:href="#bd"/><use transform="matrix(0.010416666666666668,0,0,0.010416666666666668,87.34375000000001,0)" xlink:href="#aV"/><use transform="matrix(0.010416666666666668,0,0,0.010416666666666668,93.12500000000001,0)" xlink:href="#bh"/><use transform="matrix(0.010416666666666668,0,0,0.010416666666666668,106.20833333333334,0)" xlink:href="#bf"/></g><path d="M135 0v-1490h468l242 684c30 94 76 293 111 455 34-161 80-360 110-455l238-684h470V0h-307c0-447-3-765 11-1227-122 503-246 788-395 1227H826C676-435 552-717 427-1215c15 453 11 775 11 1215H135" id="bT"/><g id="H"><use transform="matrix(0.010416666666666668,0,0,0.010416666666666668,0,0)" xlink:href="#bT"/><use transform="matrix(0.010416666666666668,0,0,0.010416666666666668,19.875000000000004,0)" xlink:href="#bh"/><use transform="matrix(0.010416666666666668,0,0,0.010416666666666668,32.958333333333336,0)" xlink:href="#aY"/><use transform="matrix(0.010416666666666668,0,0,0.010416666666666668,46.40624999999999,0)" xlink:href="#aV"/><use transform="matrix(0.010416666666666668,0,0,0.010416666666666668,52.18749999999999,0)" xlink:href="#bS"/><use transform="matrix(0.010416666666666668,0,0,0.010416666666666668,57.96875,0)" xlink:href="#aX"/></g><g id="I"><use transform="matrix(0.010416666666666668,0,0,0.010416666666666668,0,0)" xlink:href="#aM"/><use transform="matrix(0.010416666666666668,0,0,0.010416666666666668,7.781250000000001,0)" xlink:href="#bM"/><use transform="matrix(0.010416666666666668,0,0,0.010416666666666668,21.197916666666668,0)" xlink:href="#au"/><use transform="matrix(0.010416666666666668,0,0,0.010416666666666668,33.84375,0)" xlink:href="#at"/><use transform="matrix(0.010416666666666668,0,0,0.010416666666666668,45.82291666666667,0)" xlink:href="#aD"/><use transform="matrix(0.010416666666666668,0,0,0.010416666666666668,58.01041666666667,0)" xlink:href="#ap"/></g><path d="M481 0L54-1118h197c107 314 236 620 325 951 87-331 217-637 324-951h197L670 0H481" id="bU"/><g id="J"><use transform="matrix(0.010416666666666668,0,0,0.010416666666666668,0,0)" xlink:href="#aN"/><use transform="matrix(0.010416666666666668,0,0,0.010416666666666668,16.072916666666668,0)" xlink:href="#at"/><use transform="matrix(0.010416666666666668,0,0,0.010416666666666668,28.052083333333336,0)" xlink:href="#ap"/><use transform="matrix(0.010416666666666668,0,0,0.010416666666666668,35.03125,0)" xlink:href="#aq"/><use transform="matrix(0.010416666666666668,0,0,0.010416666666666668,40.197916666666664,0)" xlink:href="#bU"/><use transform="matrix(0.010416666666666668,0,0,0.010416666666666668,51.770833333333336,0)" xlink:href="#au"/></g><use transform="matrix(0.010416666666666668,0,0,0.010416666666666668,0,0)" xlink:href="#aQ" id="K"/><g id="L"><use transform="matrix(0.010416666666666668,0,0,0.010416666666666668,0,0)" xlink:href="#aR"/><use transform="matrix(0.010416666666666668,0,0,0.010416666666666668,12.822916666666668,0)" xlink:href="#aS"/><use transform="matrix(0.010416666666666668,0,0,0.010416666666666668,24.468749999999996,0)" xlink:href="#aC"/><use transform="matrix(0.010416666666666668,0,0,0.010416666666666668,37.53125,0)" xlink:href="#aE"/><use transform="matrix(0.010416666666666668,0,0,0.010416666666666668,50.08333333333333,0)" xlink:href="#aT"/></g><path d="M135 0v-1490h591c327 0 492 160 492 383 0 177-115 286-268 320v15c168 8 326 140 326 361 0 236-176 411-512 411H135zm305-251h264c179 0 258-76 258-189 0-125-97-215-250-215H440v404zm0-613h241c131 0 228-74 228-194 0-109-79-183-222-183H440v377" id="bV"/><path d="M128 0v-1490h300v802h17l366-430h347L740-633 1179 0H826L514-456l-86 97V0H128" id="bW"/><path d="M537 19C279 19 81-185 81-557c0-382 206-575 454-575 190 0 278 113 318 202h10v-560h300V0H868v-179h-15C812-89 719 19 537 19zm92-241c153 0 240-134 240-336 0-203-86-334-240-334-158 0-240 138-240 334 0 197 84 336 240 336" id="bX"/><g id="M"><use transform="matrix(0.010416666666666668,0,0,0.010416666666666668,0,0)" xlink:href="#bV"/><use transform="matrix(0.010416666666666668,0,0,0.010416666666666668,14.114583333333336,0)" xlink:href="#aZ"/><use transform="matrix(0.010416666666666668,0,0,0.010416666666666668,26.500000000000004,0)" xlink:href="#bg"/><use transform="matrix(0.010416666666666668,0,0,0.010416666666666668,39.052083333333336,0)" xlink:href="#bW"/><use transform="matrix(0.010416666666666668,0,0,0.010416666666666668,50.94791666666667,0)" xlink:href="#aX"/><use transform="matrix(0.010416666666666668,0,0,0.010416666666666668,63.65625000000001,0)" xlink:href="#bf"/><use transform="matrix(0.010416666666666668,0,0,0.010416666666666668,76.93750000000001,0)" xlink:href="#bX"/></g><path d="M135 0v-1490h581c339 0 533 210 533 503 0 295-197 500-540 500H440V0H135zm305-733h220c186 0 274-104 274-254s-88-251-275-251H440v505" id="bY"/><path d="M440-1490V0H135v-1490h305" id="bZ"/><g id="N"><use transform="matrix(0.010416666666666668,0,0,0.010416666666666668,0,0)" xlink:href="#bb"/><use transform="matrix(0.010416666666666668,0,0,0.010416666666666668,15.927083333333336,0)" xlink:href="#bY"/><use transform="matrix(0.010416666666666668,0,0,0.010416666666666668,29.750000000000004,0)" xlink:href="#bZ"/></g><g id="P"><use transform="matrix(0.010416666666666668,0,0,0.010416666666666668,0,0)" xlink:href="#aM"/><use transform="matrix(0.010416666666666668,0,0,0.010416666666666668,7.781250000000001,0)" xlink:href="#aN"/><use transform="matrix(0.010416666666666668,0,0,0.010416666666666668,23.854166666666668,0)" xlink:href="#aE"/><use transform="matrix(0.010416666666666668,0,0,0.010416666666666668,36.645833333333336,0)" xlink:href="#aK"/><use transform="matrix(0.010416666666666668,0,0,0.010416666666666668,49.708333333333336,0)" xlink:href="#au"/><use transform="matrix(0.010416666666666668,0,0,0.010416666666666668,62.14583333333334,0)" xlink:href="#aO"/><use transform="matrix(0.010416666666666668,0,0,0.010416666666666668,68.29166666666667,0)" xlink:href="#aP"/><use transform="matrix(0.010416666666666668,0,0,0.010416666666666668,73.45833333333334,0)" xlink:href="#as"/></g><g id="Q"><use transform="matrix(0.010416666666666668,0,0,0.010416666666666668,0,0)" xlink:href="#aR"/><use transform="matrix(0.010416666666666668,0,0,0.010416666666666668,12.822916666666668,0)" xlink:href="#aS"/><use transform="matrix(0.010416666666666668,0,0,0.010416666666666668,24.468749999999996,0)" xlink:href="#aC"/><use transform="matrix(0.010416666666666668,0,0,0.010416666666666668,37.53125,0)" xlink:href="#aw"/><use transform="matrix(0.010416666666666668,0,0,0.010416666666666668,45.208333333333336,0)" xlink:href="#au"/><use transform="matrix(0.010416666666666668,0,0,0.010416666666666668,57.64583333333334,0)" xlink:href="#as"/><use transform="matrix(0.010416666666666668,0,0,0.010416666666666668,68.90625,0)" xlink:href="#as"/><use transform="matrix(0.010416666666666668,0,0,0.010416666666666668,80.16666666666667,0)" xlink:href="#aT"/></g><path d="M750-1118v229H516V0H217v-889H20v-229h197v-86c0-238 156-356 363-356 94 0 178 20 215 31l-54 226c-25-7-61-15-100-15-123-3-131 84-125 200h234" id="ca"/><g id="R"><use transform="matrix(0.012187499348958334,0,0,0.012187499348958334,0,0)" xlink:href="#bY"/><use transform="matrix(0.012187499348958334,0,0,0.012187499348958334,16.17281163606771,0)" xlink:href="#bS"/><use transform="matrix(0.012187499348958334,0,0,0.012187499348958334,22.936873774739585,0)" xlink:href="#aZ"/><use transform="matrix(0.012187499348958334,0,0,0.012187499348958334,37.42781050065104,0)" xlink:href="#bf"/><use transform="matrix(0.012187499348958334,0,0,0.012187499348958334,52.96687217057292,0)" xlink:href="#aV"/><use transform="matrix(0.012187499348958334,0,0,0.012187499348958334,59.73093430924478,0)" xlink:href="#ca"/><use transform="matrix(0.012187499348958334,0,0,0.012187499348958334,69.87093376757812,0)" xlink:href="#aV"/><use transform="matrix(0.012187499348958334,0,0,0.012187499348958334,76.63499590625,0)" xlink:href="#bg"/><use transform="matrix(0.012187499348958334,0,0,0.012187499348958334,91.56468260872396,0)" xlink:href="#aZ"/><use transform="matrix(0.012187499348958334,0,0,0.012187499348958334,106.05561933463542,0)" xlink:href="#bd"/><use transform="matrix(0.012187499348958334,0,0,0.012187499348958334,114.952493859375,0)" xlink:href="#aX"/><use transform="matrix(0.012187499348958334,0,0,0.012187499348958334,129.82124306510417,0)" xlink:href="#bc"/><use transform="matrix(0.012187499348958334,0,0,0.012187499348958334,145.36030473502603,0)" xlink:href="#aW"/></g><g id="S"><use transform="matrix(0.012187499348958334,0,0,0.012187499348958334,0,0)" xlink:href="#bX"/><use transform="matrix(0.012187499348958334,0,0,0.012187499348958334,15.734061659505208,0)" xlink:href="#aX"/></g><path d="M440 22C227 22 68-92 68-313c0-250 202-322 422-343 195-21 271-24 271-105 0-95-63-149-175-149-116 0-187 57-211 129l-275-46c57-194 237-305 487-305 240 0 474 108 474 379V0H777v-155h-10C713-51 605 22 440 22zm6-1290H186v-7l288-296h230l289 296v7H731l-142-170zm79 1079c140 0 238-93 238-211v-121c-37 26-156 42-222 51-111 16-185 59-185 149 0 87 70 132 169 132" id="cb"/><g id="T"><use transform="matrix(0.012187499348958334,0,0,0.012187499348958334,0,0)" xlink:href="#bd"/><use transform="matrix(0.012187499348958334,0,0,0.012187499348958334,9.262499505208334,0)" xlink:href="#cb"/><use transform="matrix(0.012187499348958334,0,0,0.012187499348958334,23.753436231119792,0)" xlink:href="#bg"/><use transform="matrix(0.012187499348958334,0,0,0.012187499348958334,38.43937294661458,0)" xlink:href="#be"/><use transform="matrix(0.012187499348958334,0,0,0.012187499348958334,53.97843461653646,0)" xlink:href="#aX"/><use transform="matrix(0.012187499348958334,0,0,0.012187499348958334,68.84718382226563,0)" xlink:href="#ba"/></g><path d="M678-1118v154H420V0H240v-964H20v-154h220v-149c0-194 155-293 318-293 85 0 141 18 168 30l-50 154c-19-6-47-17-97-17-111 0-159 58-159 166v109h258" id="cc"/><g id="U"><use transform="matrix(0.010416666666666668,0,0,0.010416666666666668,0,0)" xlink:href="#ax"/><use transform="matrix(0.010416666666666668,0,0,0.010416666666666668,13.625000000000002,0)" xlink:href="#ar"/><use transform="matrix(0.010416666666666668,0,0,0.010416666666666668,18.791666666666668,0)" xlink:href="#at"/><use transform="matrix(0.010416666666666668,0,0,0.010416666666666668,30.770833333333336,0)" xlink:href="#aF"/><use transform="matrix(0.010416666666666668,0,0,0.010416666666666668,43.37499999999999,0)" xlink:href="#aq"/><use transform="matrix(0.010416666666666668,0,0,0.010416666666666668,48.541666666666664,0)" xlink:href="#cc"/><use transform="matrix(0.010416666666666668,0,0,0.010416666666666668,56.4375,0)" xlink:href="#aq"/><use transform="matrix(0.010416666666666668,0,0,0.010416666666666668,61.604166666666664,0)" xlink:href="#au"/></g><g id="V"><use transform="matrix(0.010416666666666668,0,0,0.010416666666666668,0,0)" xlink:href="#aK"/><use transform="matrix(0.010416666666666668,0,0,0.010416666666666668,13.062500000000002,0)" xlink:href="#au"/><use transform="matrix(0.010416666666666668,0,0,0.010416666666666668,25.500000000000004,0)" xlink:href="#as"/></g><path d="M471 26C259 26 90-98 90-318c0-256 228-303 435-329 202-27 287-16 287-108 0-139-79-219-234-219-161 0-248 86-283 164l-173-57c86-203 278-265 451-265 150 0 419 46 419 395V0H815v-152h-12C765-73 660 26 471 26zm31-159c199 0 310-134 310-271v-155c-30 35-226 55-295 64-131 17-246 59-246 186 0 116 97 176 231 176zm-88-1149H237v-9l235-267h171l236 267v9H700l-142-175" id="cd"/><path d="M338-670V0H158v-1490h180v566c73-149 190-208 336-208 226 0 379 139 379 422V0H872v-695c0-172-96-275-252-275-161 0-282 109-282 300" id="ce"/><g id="W"><use transform="matrix(0.010416666666666668,0,0,0.010416666666666668,0,0)" xlink:href="#ap"/><use transform="matrix(0.010416666666666668,0,0,0.010416666666666668,7.083333333333336,0)" xlink:href="#cd"/><use transform="matrix(0.010416666666666668,0,0,0.010416666666666668,19.062500000000004,0)" xlink:href="#aD"/><use transform="matrix(0.010416666666666668,0,0,0.010416666666666668,31.250000000000007,0)" xlink:href="#ce"/><use transform="matrix(0.010416666666666668,0,0,0.010416666666666668,43.864583333333336,0)" xlink:href="#au"/><use transform="matrix(0.010416666666666668,0,0,0.010416666666666668,56.30208333333334,0)" xlink:href="#as"/></g><path d="M128 359l88-567h206L266 359H128" id="cf"/><g id="X"><use transform="matrix(0.010416666666666668,0,0,0.010416666666666668,0,0)" xlink:href="#at"/><use transform="matrix(0.010416666666666668,0,0,0.010416666666666668,11.979166666666668,0)" xlink:href="#av"/><use transform="matrix(0.010416666666666668,0,0,0.010416666666666668,24.593749999999996,0)" xlink:href="#ap"/><use transform="matrix(0.010416666666666668,0,0,0.010416666666666668,31.364583333333336,0)" xlink:href="#aE"/><use transform="matrix(0.010416666666666668,0,0,0.010416666666666668,44.15624999999999,0)" xlink:href="#aG"/><use transform="matrix(0.010416666666666668,0,0,0.010416666666666668,62.84375,0)" xlink:href="#at"/><use transform="matrix(0.010416666666666668,0,0,0.010416666666666668,74.82291666666667,0)" xlink:href="#ap"/><use transform="matrix(0.010416666666666668,0,0,0.010416666666666668,81.80208333333334,0)" xlink:href="#aq"/><use transform="matrix(0.010416666666666668,0,0,0.010416666666666668,86.96875000000001,0)" xlink:href="#ay"/><use transform="matrix(0.010416666666666668,0,0,0.010416666666666668,100.03125000000001,0)" xlink:href="#av"/><use transform="matrix(0.010416666666666668,0,0,0.010416666666666668,112.64583333333334,0)" xlink:href="#au"/><use transform="matrix(0.010416666666666668,0,0,0.010416666666666668,125.08333333333334,0)" xlink:href="#as"/><use transform="matrix(0.010416666666666668,0,0,0.010416666666666668,136.34375,0)" xlink:href="#cf"/></g><g id="Y"><use transform="matrix(0.010416666666666668,0,0,0.010416666666666668,0,0)" xlink:href="#aD"/><use transform="matrix(0.010416666666666668,0,0,0.010416666666666668,12.187500000000002,0)" xlink:href="#aE"/><use transform="matrix(0.010416666666666668,0,0,0.010416666666666668,24.979166666666668,0)" xlink:href="#aG"/><use transform="matrix(0.010416666666666668,0,0,0.010416666666666668,43.66666666666667,0)" xlink:href="#aG"/><use transform="matrix(0.010416666666666668,0,0,0.010416666666666668,62.35416666666667,0)" xlink:href="#au"/></g><path d="M160-923l88-567h206L298-923H160" id="cg"/><g id="Z"><use transform="matrix(0.010416666666666668,0,0,0.010416666666666668,0,0)" xlink:href="#ar"/><use transform="matrix(0.010416666666666668,0,0,0.010416666666666668,5.166666666666667,0)" xlink:href="#cg"/><use transform="matrix(0.010416666666666668,0,0,0.010416666666666668,9.520833333333334,0)" xlink:href="#at"/><use transform="matrix(0.010416666666666668,0,0,0.010416666666666668,21.499999999999996,0)" xlink:href="#aF"/><use transform="matrix(0.010416666666666668,0,0,0.010416666666666668,34.10416666666667,0)" xlink:href="#aF"/><use transform="matrix(0.010416666666666668,0,0,0.010416666666666668,46.708333333333336,0)" xlink:href="#av"/><use transform="matrix(0.010416666666666668,0,0,0.010416666666666668,59.322916666666686,0)" xlink:href="#ar"/><use transform="matrix(0.010416666666666668,0,0,0.010416666666666668,64.48958333333334,0)" xlink:href="#at"/><use transform="matrix(0.010416666666666668,0,0,0.010416666666666668,76.46875000000001,0)" xlink:href="#ap"/><use transform="matrix(0.010416666666666668,0,0,0.010416666666666668,83.44791666666669,0)" xlink:href="#aq"/><use transform="matrix(0.010416666666666668,0,0,0.010416666666666668,88.61458333333336,0)" xlink:href="#aE"/><use transform="matrix(0.010416666666666668,0,0,0.010416666666666668,101.40625000000003,0)" xlink:href="#aF"/></g><path d="M628 24c-324 0-524-230-524-574 0-343 198-582 503-582 237 0 487 146 487 559v75H286c9 234 145 362 343 362 132 0 231-58 273-172l174 48C1024-91 857 24 628 24zM287-650h624c-17-190-120-322-304-322-192 0-309 151-320 322zm237-614l140-294h201l-194 294H524" id="ch"/><g id="aa"><use transform="matrix(0.010416666666666668,0,0,0.010416666666666668,0,0)" xlink:href="#aw"/><use transform="matrix(0.010416666666666668,0,0,0.010416666666666668,7.677083333333336,0)" xlink:href="#ch"/><use transform="matrix(0.010416666666666668,0,0,0.010416666666666668,20.114583333333336,0)" xlink:href="#as"/><use transform="matrix(0.010416666666666668,0,0,0.010416666666666668,31.375000000000004,0)" xlink:href="#au"/><use transform="matrix(0.010416666666666668,0,0,0.010416666666666668,43.81250000000001,0)" xlink:href="#aw"/><use transform="matrix(0.010416666666666668,0,0,0.010416666666666668,52.177083333333336,0)" xlink:href="#bU"/><use transform="matrix(0.010416666666666668,0,0,0.010416666666666668,64.06250000000001,0)" xlink:href="#at"/><use transform="matrix(0.010416666666666668,0,0,0.010416666666666668,76.04166666666669,0)" xlink:href="#ap"/><use transform="matrix(0.010416666666666668,0,0,0.010416666666666668,83.02083333333336,0)" xlink:href="#aq"/><use transform="matrix(0.010416666666666668,0,0,0.010416666666666668,88.18750000000003,0)" xlink:href="#aE"/><use transform="matrix(0.010416666666666668,0,0,0.010416666666666668,100.9791666666667,0)" xlink:href="#aF"/><use transform="matrix(0.010416666666666668,0,0,0.010416666666666668,113.58333333333337,0)" xlink:href="#as"/></g><g id="ab"><use transform="matrix(0.010416666666666668,0,0,0.010416666666666668,0,0)" xlink:href="#aF"/><use transform="matrix(0.010416666666666668,0,0,0.010416666666666668,12.604166666666668,0)" xlink:href="#aE"/><use transform="matrix(0.010416666666666668,0,0,0.010416666666666668,25.395833333333336,0)" xlink:href="#aF"/></g><g id="ac"><use transform="matrix(0.010416666666666668,0,0,0.010416666666666668,0,0)" xlink:href="#aD"/><use transform="matrix(0.010416666666666668,0,0,0.010416666666666668,12.187500000000002,0)" xlink:href="#aE"/><use transform="matrix(0.010416666666666668,0,0,0.010416666666666668,24.979166666666668,0)" xlink:href="#aF"/><use transform="matrix(0.010416666666666668,0,0,0.010416666666666668,37.58333333333334,0)" xlink:href="#cc"/><use transform="matrix(0.010416666666666668,0,0,0.010416666666666668,45.47916666666668,0)" xlink:href="#aq"/><use transform="matrix(0.010416666666666668,0,0,0.010416666666666668,50.645833333333336,0)" xlink:href="#aw"/><use transform="matrix(0.010416666666666668,0,0,0.010416666666666668,59.010416666666686,0)" xlink:href="#aG"/><use transform="matrix(0.010416666666666668,0,0,0.010416666666666668,77.69791666666669,0)" xlink:href="#ch"/><use transform="matrix(0.010416666666666668,0,0,0.010416666666666668,90.13541666666667,0)" xlink:href="#au"/><use transform="matrix(0.010416666666666668,0,0,0.010416666666666668,102.57291666666667,0)" xlink:href="#as"/><use transform="matrix(0.010416666666666668,0,0,0.010416666666666668,113.83333333333337,0)" xlink:href="#aO"/></g><g id="ad"><use transform="matrix(0.010416666666666668,0,0,0.010416666666666668,0,0)" xlink:href="#bb"/><use transform="matrix(0.010416666666666668,0,0,0.010416666666666668,15.927083333333336,0)" xlink:href="#bY"/><use transform="matrix(0.010416666666666668,0,0,0.010416666666666668,29.750000000000004,0)" xlink:href="#bZ"/></g><g id="ae"><use transform="matrix(0.010416666666666668,0,0,0.010416666666666668,0,0)" xlink:href="#bY"/><use transform="matrix(0.010416666666666668,0,0,0.010416666666666668,13.552083333333336,0)" xlink:href="#aZ"/><use transform="matrix(0.010416666666666668,0,0,0.010416666666666668,25.937499999999996,0)" xlink:href="#aW"/><use transform="matrix(0.010416666666666668,0,0,0.010416666666666668,34.10416666666667,0)" xlink:href="#bg"/><use transform="matrix(0.010416666666666668,0,0,0.010416666666666668,46.65625000000001,0)" xlink:href="#ba"/></g><path d="M633 22C291 22 81-200 81-553c0-345 210-579 537-579 292 0 525 185 525 567v84H378c7 183 109 277 260 277 105 0 184-46 216-132l272 51C1071-99 893 22 633 22zM380-669h474c-15-146-94-237-233-237-143 0-229 99-241 237zm125-591l138-311h279l-207 311H505" id="ci"/><g id="af"><use transform="matrix(0.010416666666666668,0,0,0.010416666666666668,0,0)" xlink:href="#bT"/><use transform="matrix(0.010416666666666668,0,0,0.010416666666666668,19.875000000000004,0)" xlink:href="#bh"/><use transform="matrix(0.010416666666666668,0,0,0.010416666666666668,32.958333333333336,0)" xlink:href="#bf"/><use transform="matrix(0.010416666666666668,0,0,0.010416666666666668,46.239583333333336,0)" xlink:href="#bd"/><use transform="matrix(0.010416666666666668,0,0,0.010416666666666668,54.05208333333334,0)" xlink:href="#aW"/><use transform="matrix(0.010416666666666668,0,0,0.010416666666666668,62.21875,0)" xlink:href="#ci"/><use transform="matrix(0.010416666666666668,0,0,0.010416666666666668,75.13541666666667,0)" xlink:href="#aZ"/><use transform="matrix(0.010416666666666668,0,0,0.010416666666666668,87.52083333333334,0)" xlink:href="#bS"/></g><g id="ag"><use transform="matrix(0.010416666666666668,0,0,0.010416666666666668,0,0)" xlink:href="#bi"/><use transform="matrix(0.010416666666666668,0,0,0.010416666666666668,7.541666666666668,0)" xlink:href="#bt"/><use transform="matrix(0.010416666666666668,0,0,0.010416666666666668,20.614583333333336,0)" xlink:href="#bs"/><use transform="matrix(0.010416666666666668,0,0,0.010416666666666668,33.41666666666667,0)" xlink:href="#bo"/><use transform="matrix(0.010416666666666668,0,0,0.010416666666666668,46.03125000000001,0)" xlink:href="#bo"/><use transform="matrix(0.010416666666666668,0,0,0.010416666666666668,58.64583333333334,0)" xlink:href="#bD"/><use transform="matrix(0.010416666666666668,0,0,0.010416666666666668,70.92708333333334,0)" xlink:href="#bn"/><use transform="matrix(0.010416666666666668,0,0,0.010416666666666668,83.20833333333334,0)" xlink:href="#bu"/></g><g id="ah"><use transform="matrix(0.010416666666666668,0,0,0.010416666666666668,0,0)" xlink:href="#bs"/><use transform="matrix(0.010416666666666668,0,0,0.010416666666666668,12.802083333333334,0)" xlink:href="#bq"/><use transform="matrix(0.010416666666666668,0,0,0.010416666666666668,19.927083333333336,0)" xlink:href="#bq"/><use transform="matrix(0.010416666666666668,0,0,0.010416666666666668,27.88541666666667,0)" xlink:href="#bp"/><use transform="matrix(0.010416666666666668,0,0,0.010416666666666668,33.06250000000001,0)" xlink:href="#br"/><use transform="matrix(0.010416666666666668,0,0,0.010416666666666668,45.26041666666667,0)" xlink:href="#bn"/><use transform="matrix(0.010416666666666668,0,0,0.010416666666666668,57.54166666666667,0)" xlink:href="#bv"/><use transform="matrix(0.010416666666666668,0,0,0.010416666666666668,62.70833333333334,0)" xlink:href="#bv"/><use transform="matrix(0.010416666666666668,0,0,0.010416666666666668,67.875,0)" xlink:href="#bn"/></g><g id="ai"><use transform="matrix(0.010416666666666668,0,0,0.010416666666666668,0,0)" xlink:href="#bt"/><use transform="matrix(0.010416666666666668,0,0,0.010416666666666668,13.072916666666668,0)" xlink:href="#bn"/></g><g id="aj"><use transform="matrix(0.010416666666666668,0,0,0.010416666666666668,0,0)" xlink:href="#bv"/><use transform="matrix(0.010416666666666668,0,0,0.010416666666666668,5.166666666666667,0)" xlink:href="#bj"/></g><g id="ak"><use transform="matrix(0.010416666666666668,0,0,0.010416666666666668,0,0)" xlink:href="#bH"/><use transform="matrix(0.010416666666666668,0,0,0.010416666666666668,11.989583333333334,0)" xlink:href="#bp"/><use transform="matrix(0.010416666666666668,0,0,0.010416666666666668,17.166666666666668,0)" xlink:href="#bv"/><use transform="matrix(0.010416666666666668,0,0,0.010416666666666668,22.333333333333336,0)" xlink:href="#bv"/><use transform="matrix(0.010416666666666668,0,0,0.010416666666666668,27.500000000000004,0)" xlink:href="#bn"/></g><path d="M87 0l247-1490h270l211 940c16 74 39 220 54 339 57-123 125-267 165-339l519-940h271L1577 0h-187c75-441 134-849 220-1287C1371-790 1163-459 914 0H749C649-458 553-779 473-1282 408-826 339-440 268 0H87" id="cj"/><g id="al"><use transform="matrix(0.010416666666666668,0,0,0.010416666666666668,0,0)" xlink:href="#cj"/><use transform="matrix(0.010416666666666668,0,0,0.010416666666666668,19.270833333333336,0)" xlink:href="#bs"/><use transform="matrix(0.010416666666666668,0,0,0.010416666666666668,32.07291666666667,0)" xlink:href="#bo"/><use transform="matrix(0.010416666666666668,0,0,0.010416666666666668,44.68750000000001,0)" xlink:href="#bl"/><use transform="matrix(0.010416666666666668,0,0,0.010416666666666668,51.68750000000001,0)" xlink:href="#bw"/><use transform="matrix(0.010416666666666668,0,0,0.010416666666666668,59.375000000000014,0)" xlink:href="#bn"/><use transform="matrix(0.010416666666666668,0,0,0.010416666666666668,71.65625000000001,0)" xlink:href="#bj"/><use transform="matrix(0.010416666666666668,0,0,0.010416666666666668,84.75000000000001,0)" xlink:href="#bv"/><use transform="matrix(0.010416666666666668,0,0,0.010416666666666668,89.91666666666667,0)" xlink:href="#bx"/></g><path fill="#333" d="M135 0v-1490h305v602h649v-602h306V0h-306v-635H440V0H135" id="ck"/><path fill="#333" d="M75-1237v-253h1217v253H837V0H531v-1237H75" id="cl"/><path fill="#333" d="M135 0v-1490h581c339 0 533 210 533 503 0 295-197 500-540 500H440V0H135zm305-733h220c186 0 274-104 274-254s-88-251-275-251H440v505" id="cm"/><path fill="#333" d="M681 22C323 22 94-145 85-462h297c10 151 131 226 296 226 163 0 271-77 271-190 0-102-95-149-257-189l-164-41c-252-61-403-188-403-405 0-269 236-449 560-449 330 0 546 183 551 445H941c-11-119-106-188-259-188-156 0-244 72-244 172-3 156 226 185 373 221 250 61 445 186 445 436 0 271-213 446-575 446" id="cn"/><g id="am"><use transform="matrix(0.008680555555555556,0,0,0.008680555555555556,0,0)" xlink:href="#ck"/><use transform="matrix(0.008680555555555556,0,0,0.008680555555555556,13.28125,0)" xlink:href="#cl"/><use transform="matrix(0.008680555555555556,0,0,0.008680555555555556,25.147569444444443,0)" xlink:href="#cl"/><use transform="matrix(0.008680555555555556,0,0,0.008680555555555556,37.013888888888886,0)" xlink:href="#cm"/><use transform="matrix(0.008680555555555556,0,0,0.008680555555555556,48.53298611111111,0)" xlink:href="#cn"/></g><path fill="#333" d="M49 0l509-1490h400L1480 0h-339l-115-346H497L386 0H49zm524-585h374c-75-213-124-402-192-666-66 268-110 453-182 666" id="co"/><path fill="#333" d="M786 20C389 20 94-260 94-744c0-487 299-766 692-766 339 0 597 194 641 529h-309c-28-162-156-258-326-258-233 0-388 179-388 495 0 323 157 493 387 493 170 0 298-97 328-259h309c-34 277-266 530-642 530" id="cp"/><path fill="#333" d="M135 0v-1490h997v253H440v360h640v249H440v375h694V0H135" id="cq"/><g id="an"><use transform="matrix(0.008680555555555556,0,0,0.008680555555555556,0,0)" xlink:href="#cl"/><use transform="matrix(0.008680555555555556,0,0,0.008680555555555556,10.286458333333334,0)" xlink:href="#co"/><use transform="matrix(0.008680555555555556,0,0,0.008680555555555556,22.8125,0)" xlink:href="#cp"/><use transform="matrix(0.008680555555555556,0,0,0.008680555555555556,35.96354166666667,0)" xlink:href="#ck"/><use transform="matrix(0.008680555555555556,0,0,0.008680555555555556,49.24479166666667,0)" xlink:href="#cq"/><use transform="matrix(0.008680555555555556,0,0,0.008680555555555556,60.043402777777786,0)" xlink:href="#cn"/></g></defs></g></svg>